<svg version="1.1" id="Layer_1" xmlns="http://www.w3.org/2000/svg" xmlns:xlink="http://www.w3.org/1999/xlink" x="0px" y="0px"
	 width="100%" viewBox="0 0 247 247" enable-background="new 0 0 247 247" xml:space="preserve">
<path fill="#FCF9EA" opacity="1.000000" stroke="none" 
	d="
M248.000000,155.000000 
	C248.000000,185.927307 248.000000,216.854630 248.000000,248.000000 
	C216.979446,248.000000 185.958374,248.000000 154.348145,247.640610 
	C156.103363,244.440567 158.013992,241.530411 162.617050,241.435181 
	C166.689438,241.350906 174.415878,232.587082 174.762375,228.501404 
	C175.196487,223.382507 175.728439,218.176147 175.243408,213.100677 
	C174.703110,207.446823 176.269501,202.990021 180.147369,199.109985 
	C192.962753,186.287537 205.683243,173.367691 218.668808,160.719986 
	C221.299728,158.157532 224.764404,155.315674 228.133972,154.889404 
	C234.647095,154.065521 241.366257,154.870316 248.000000,155.000000 
z"/>
<path fill="#FFFBEC" opacity="1.000000" stroke="none" 
	d="
M1.000000,61.000000 
	C1.000000,43.312439 1.000000,25.624876 1.414736,7.469829 
	C2.492676,7.045722 3.200334,6.952954 3.812446,7.152814 
	C13.673942,10.372689 22.934853,9.441804 31.910954,3.950844 
	C33.538197,2.955409 36.757042,3.463972 38.746872,4.367123 
	C44.469933,6.964727 49.827568,10.819546 56.494778,9.943726 
	C67.387886,8.512782 78.232948,6.716065 88.949509,5.364241 
	C88.502441,6.677179 88.204140,7.699536 87.621994,8.867958 
	C86.721718,9.177065 86.105286,9.340105 85.187790,9.374765 
	C84.552521,9.823073 84.218323,10.399762 83.865570,11.353920 
	C83.987869,12.199065 84.128731,12.666741 84.143341,13.496672 
	C80.154259,17.252542 80.341385,21.711147 80.438316,26.318439 
	C80.555260,31.877554 80.184799,37.446922 79.684158,43.024544 
	C76.224174,46.204536 72.751678,49.100155 70.064102,52.598743 
	C65.266968,58.843464 59.672218,61.594292 51.431808,61.246666 
	C34.647606,60.538620 17.813528,61.012878 1.000000,61.000000 
z"/>
<path fill="#07224A" opacity="1.000000" stroke="none" 
	d="
M80.025307,43.011852 
	C80.184799,37.446922 80.555260,31.877554 80.438316,26.318439 
	C80.341385,21.711147 80.154259,17.252542 84.486755,13.466761 
	C86.608368,11.688392 88.260330,10.302189 89.917709,8.924201 
	C89.923119,8.932416 89.917488,8.912437 90.257019,8.956076 
	C92.740219,8.014173 94.883896,7.028630 97.163483,5.850206 
	C97.482788,5.400829 97.684204,5.159377 98.216034,4.964612 
	C99.064232,4.425667 99.600060,3.855080 100.592354,3.228257 
	C110.347687,3.025252 119.646545,2.878481 129.380890,2.929237 
	C137.125687,3.202565 144.443863,3.105224 151.737915,3.478858 
	C153.507935,3.569526 155.198471,5.211894 156.953400,6.513827 
	C157.650101,7.485563 158.223541,8.296412 159.003815,8.647276 
	C163.035751,10.460343 167.120621,12.155669 171.121033,14.231097 
	C171.042068,15.027212 171.029144,15.484286 170.945129,16.324982 
	C167.489105,21.796036 169.063080,27.352419 169.583649,32.736687 
	C169.664352,33.571430 171.661575,34.220882 172.864319,35.296951 
	C173.659210,37.088837 174.362305,38.539795 174.803894,40.087715 
	C174.063873,40.468056 173.585358,40.751427 172.726379,41.028084 
	C170.685364,41.842201 169.024826,42.663036 167.123535,43.602882 
	C166.761398,42.868790 166.180389,42.185551 166.097916,41.446667 
	C165.349319,34.740314 164.630692,28.029310 164.033737,21.308084 
	C163.841583,19.144604 164.364441,16.710913 160.602966,16.881845 
	C157.879089,15.183497 155.466858,13.630513 152.989868,11.676857 
	C151.624802,10.519594 150.331375,9.119059 149.023148,9.105065 
	C134.394730,8.948607 119.762772,8.922153 105.135986,9.141873 
	C103.749023,9.162709 102.390671,11.087783 100.851410,12.424940 
	C97.843704,14.774711 95.003632,16.828335 91.754532,18.999037 
	C90.897667,20.425392 90.061623,21.733820 90.058754,23.044069 
	C89.986702,56.011162 89.973938,88.978554 90.098511,121.945328 
	C90.103905,123.371613 91.515503,124.792587 92.270721,126.667747 
	C92.238831,131.999725 92.208275,136.880005 91.861992,142.070465 
	C91.389336,145.755371 91.232407,149.130066 91.145905,152.873520 
	C90.836792,155.680344 90.457260,158.118423 90.058113,161.069153 
	C90.026657,182.872116 90.002274,204.162430 90.020462,225.452713 
	C90.022499,227.838608 89.313576,230.781311 93.472237,231.153442 
	C95.161522,232.605286 96.601456,233.860794 98.039795,235.499023 
	C99.826729,240.972702 104.190742,238.870789 107.416023,238.859894 
	C119.710121,238.818283 132.002167,238.310516 144.296829,238.071625 
	C145.527054,238.047729 146.769791,238.666367 148.004333,239.390213 
	C148.420944,241.242844 148.839935,242.692078 149.147064,244.366364 
	C148.748596,244.745956 148.462006,244.900467 147.743149,245.007202 
	C136.122910,244.661469 124.935188,244.270538 113.746452,244.239014 
	C112.834503,244.236435 111.915642,246.688507 111.000000,248.000000 
	C110.555557,248.000000 110.111107,248.000000 109.292694,247.610352 
	C108.316681,245.961746 107.925919,243.792084 107.077446,243.595230 
	C102.436325,242.518463 97.682808,241.926117 92.632309,241.077652 
	C90.887894,239.920990 89.479095,238.853958 88.140411,237.557068 
	C88.210541,237.327225 88.058159,236.871384 88.059402,236.541718 
	C87.692001,235.203552 87.323349,234.195053 86.957741,232.776337 
	C86.307114,228.752914 85.178848,225.151352 85.089790,221.524261 
	C84.834412,211.123245 84.994514,200.711899 85.004715,190.304611 
	C85.006851,188.125000 85.334251,185.756851 81.941040,185.650757 
	C81.620575,184.547455 81.313942,183.774155 81.022850,182.652435 
	C81.013710,180.872269 80.989021,179.440506 80.973602,177.539597 
	C80.878609,163.812531 80.774345,150.554642 80.746109,136.900726 
	C80.492905,134.963104 80.163681,133.421494 80.042282,131.553497 
	C80.252983,130.047607 80.255852,128.868103 80.289139,127.333633 
	C80.260849,126.276497 80.202126,125.574333 80.362289,124.652664 
	C80.678940,124.031380 80.776718,123.629616 80.946701,122.970383 
	C80.932121,122.199554 80.845337,121.686188 80.633118,120.846336 
	C80.480240,120.054596 80.452789,119.589333 80.658722,118.870621 
	C80.772072,117.032043 80.652031,115.446930 80.691315,113.569443 
	C80.598434,111.522255 80.346237,109.767456 80.106552,107.701843 
	C80.121239,106.976616 80.123413,106.562210 80.126389,105.841507 
	C80.056938,105.343506 79.986671,105.151787 80.023163,104.503876 
	C80.142731,93.363655 80.155540,82.679626 80.412735,71.766357 
	C80.642159,70.417755 80.627182,69.298409 80.894730,68.039734 
	C81.101143,67.267387 81.025047,66.634361 80.945786,65.715637 
	C80.694214,64.950310 80.445801,64.470673 80.207840,63.598465 
	C80.383118,60.857162 80.547943,58.508423 80.809860,55.783791 
	C80.906548,54.632229 80.906136,53.856560 80.938194,52.726807 
	C80.373405,51.569130 79.776154,50.765537 79.276283,49.655960 
	C79.563103,48.552197 79.752525,47.754410 80.064407,46.567436 
	C80.133011,45.122787 80.079155,44.067318 80.025307,43.011852 
z"/>
<path fill="#A92EF0" opacity="1.000000" stroke="none" 
	d="
M236.000000,1.000000 
	C239.946121,1.000000 243.892227,1.000000 248.000000,1.000000 
	C248.000000,7.686769 248.000000,14.374473 247.649490,21.517479 
	C243.537567,25.211342 239.569885,28.241367 236.049332,31.723440 
	C217.807739,49.765537 199.696915,67.939766 181.484833,86.011818 
	C179.861435,87.622742 177.838852,88.831383 174.787079,91.149437 
	C174.787079,75.893051 174.609207,62.417641 174.939972,48.954727 
	C175.004684,46.321171 176.433533,43.157890 178.271408,41.227253 
	C186.883972,32.180023 195.890411,23.508862 204.675110,14.623263 
	C206.164658,13.116618 207.258301,11.218596 208.706635,9.369250 
	C208.878403,9.237104 209.167389,8.899546 209.478149,9.194246 
	C219.776154,13.455045 232.098587,9.464196 236.000000,1.000000 
z"/>
<path fill="#F7D7C0" opacity="1.000000" stroke="none" 
	d="
M248.000000,112.000000 
	C248.000000,123.354225 248.000000,134.708450 247.531372,146.524872 
	C225.091751,146.984375 203.120728,146.979797 181.149719,146.980148 
	C174.730118,146.980240 174.664612,146.986221 174.712296,140.330521 
	C174.764725,133.011444 175.210358,125.685776 174.994461,118.377457 
	C174.847534,113.404037 177.155029,111.934387 181.588898,111.946159 
	C203.725815,112.004944 225.862946,111.989395 248.000000,112.000000 
z"/>
<path fill="#ACADAE" opacity="1.000000" stroke="none" 
	d="
M80.168343,71.995598 
	C80.155540,82.679626 80.142731,93.363655 79.633842,104.490799 
	C78.096329,104.945198 77.054893,104.956490 75.915146,104.576035 
	C74.980011,103.794029 74.144760,103.067398 73.306122,103.063461 
	C58.234230,102.992584 43.161308,102.954453 28.091036,103.124527 
	C27.038736,103.136406 26.005419,104.830322 24.581041,105.833420 
	C23.157293,106.003151 22.115780,106.081528 20.744263,106.070114 
	C19.959839,105.946831 19.505415,105.913315 19.048069,105.648529 
	C19.045143,105.417252 19.025932,104.953033 18.923698,104.561737 
	C17.327436,103.781738 15.843077,103.109055 14.337563,103.057808 
	C9.896199,102.906631 5.446461,103.001442 1.000000,103.000000 
	C1.000000,92.979103 1.000000,82.958214 1.465734,72.471741 
	C7.372685,72.331772 12.811628,72.883743 18.255568,72.938416 
	C31.875736,73.075211 45.498707,73.039894 59.118824,72.902306 
	C60.422565,72.889137 61.714169,71.674347 63.464691,71.012360 
	C66.944283,71.012512 69.970589,71.017693 73.046715,71.356926 
	C74.442863,71.723740 75.789200,71.756508 77.513710,71.826401 
	C78.650711,71.907539 79.409523,71.951569 80.168343,71.995598 
z"/>
<path fill="#FFDDC4" opacity="1.000000" stroke="none" 
	d="
M1.000000,218.000000 
	C1.000000,208.312439 1.000000,198.624878 1.468566,188.458084 
	C24.955235,187.976440 47.973518,188.010834 70.991066,187.896332 
	C72.688850,187.887894 74.381302,186.806534 76.438789,186.156433 
	C77.778633,186.046326 78.755920,186.003784 79.911354,186.405823 
	C80.054901,197.901443 80.020302,208.952499 79.589798,219.954590 
	C78.135910,219.908340 77.077942,219.911057 75.916504,219.528107 
	C73.964401,218.766113 72.116875,218.068558 70.266975,218.062210 
	C47.178185,217.983200 24.089048,218.004471 1.000000,218.000000 
z"/>
<path fill="#3AFC72" opacity="1.000000" stroke="none" 
	d="
M1.000000,157.000000 
	C1.000000,146.312439 1.000000,135.624878 1.455924,124.462730 
	C9.824140,125.082916 15.839231,121.933174 21.411610,116.427406 
	C23.570063,114.294754 27.599642,113.261665 30.826557,113.148697 
	C41.950775,112.759277 53.097370,112.949844 64.234268,113.050285 
	C65.774467,113.064171 67.308029,113.813828 68.844666,114.222878 
	C69.510582,115.256294 70.176498,116.289711 70.842415,117.323128 
	C60.156544,126.803421 49.406010,136.212204 38.810558,145.792496 
	C33.025867,151.022964 26.743010,155.223724 18.833502,156.037613 
	C12.918620,156.646255 6.946586,156.699478 1.000000,157.000000 
z"/>
<path fill="#FCF9EA" opacity="1.000000" stroke="none" 
	d="
M88.070290,237.786926 
	C89.479095,238.853958 90.887894,239.920990 92.709534,241.416519 
	C95.182129,242.895828 97.304665,243.842529 99.279854,245.033585 
	C100.626511,245.845596 101.767220,246.999146 103.000000,248.000000 
	C79.312439,248.000000 55.624878,248.000000 31.443127,247.631546 
	C30.977854,246.525970 31.006765,245.788834 31.237364,244.786072 
	C34.291885,241.679520 37.144718,238.838608 40.370300,236.016022 
	C41.834705,234.696060 42.926369,233.357773 44.187283,231.924164 
	C44.356533,231.828842 44.696056,231.639984 45.099239,231.721771 
	C56.916592,231.236404 68.330765,230.669235 79.834930,230.446854 
	C80.950920,232.192810 81.976913,233.593964 83.028732,235.338684 
	C84.726463,236.383789 86.398376,237.085358 88.070290,237.786926 
z"/>
<path fill="#F7F4E7" opacity="1.000000" stroke="none" 
	d="
M80.425339,119.124077 
	C80.452789,119.589333 80.480240,120.054596 80.452682,121.091415 
	C80.300987,122.056908 80.204277,122.450844 79.982826,123.087082 
	C79.953194,123.843651 80.048302,124.357910 80.143402,124.872177 
	C80.202126,125.574333 80.260849,126.276497 80.070213,127.426514 
	C79.491623,128.206863 79.162392,128.539337 78.482132,128.893127 
	C76.659706,129.887390 75.001396,130.665848 73.750259,131.868042 
	C69.112869,136.324051 64.543472,140.855804 60.076168,145.482346 
	C56.207367,149.489075 52.511581,153.662842 48.412903,157.862732 
	C42.841530,162.717148 37.883625,167.855240 32.240570,172.077667 
	C29.017195,174.489532 24.785494,176.328003 20.816374,176.793945 
	C14.292754,177.559784 7.613585,177.000549 1.000000,177.000000 
	C1.000000,173.638718 1.000000,170.277420 1.468602,166.464233 
	C9.987041,165.664902 18.186968,166.136963 26.037104,164.699188 
	C31.848616,163.634796 38.049587,161.353256 41.197014,154.739304 
	C46.253929,149.640091 51.131683,144.823822 56.355721,139.994324 
	C62.967140,133.887970 69.246315,127.809052 75.461716,121.665627 
	C75.825783,121.305771 75.674713,120.424744 75.870514,119.530991 
	C76.305748,118.839439 76.633835,118.403152 77.288506,117.996437 
	C78.261124,118.094498 78.907166,118.162979 79.720474,118.504227 
	C80.066940,118.892685 80.246140,119.008377 80.425339,119.124077 
z"/>
<path fill="#FFFEFC" opacity="1.000000" stroke="none" 
	d="
M97.903648,4.932968 
	C97.684204,5.159377 97.482788,5.400829 96.749802,5.771497 
	C94.799812,5.866787 93.399445,5.847906 91.783112,5.600541 
	C90.744202,5.272592 89.921242,5.173125 89.098282,5.073658 
	C78.232948,6.716065 67.387886,8.512782 56.494778,9.943726 
	C49.827568,10.819546 44.469933,6.964727 38.746872,4.367123 
	C36.757042,3.463972 33.538197,2.955409 31.910954,3.950844 
	C22.934853,9.441804 13.673942,10.372689 3.812446,7.152814 
	C3.200334,6.952954 2.492676,7.045722 1.414736,7.001171 
	C1.000000,5.008617 1.000000,3.017234 1.000000,1.000000 
	C32.687557,1.000000 64.375122,1.000000 96.549866,1.291890 
	C97.336769,2.050177 97.636490,2.516574 97.898224,3.312920 
	C97.874718,4.072902 97.889183,4.502935 97.903648,4.932968 
z"/>
<path fill="#A12DE9" opacity="1.000000" stroke="none" 
	d="
M19.999996,248.000000 
	C13.736868,248.000000 7.473736,248.000000 1.000000,248.000000 
	C1.000000,241.314072 1.000000,234.625961 1.467766,227.501816 
	C11.679640,227.072205 21.427324,226.947235 31.164392,227.212402 
	C32.816299,227.257385 34.422550,228.978683 35.755104,230.099243 
	C32.434483,233.547684 29.344810,236.766357 26.403627,240.115433 
	C24.171103,242.657562 22.127602,245.365707 19.999996,248.000000 
z"/>
<path fill="#69798B" opacity="1.000000" stroke="none" 
	d="
M148.175415,245.054993 
	C148.462006,244.900467 148.748596,244.745956 149.417953,244.230347 
	C150.534943,243.544022 151.269165,243.218796 152.356781,242.950470 
	C153.820496,242.016769 154.930817,241.026154 156.435486,240.040176 
	C158.929688,239.048798 161.029541,238.052780 163.513123,237.054596 
	C165.212463,236.492447 167.391907,236.225403 167.697891,235.323074 
	C169.226959,230.814026 173.141846,227.386795 172.266220,221.664642 
	C171.347870,215.663162 172.151733,209.398132 172.527145,203.140900 
	C180.820023,194.621307 188.527832,185.940964 196.826126,177.867584 
	C206.300919,168.649567 216.301437,159.971924 226.500427,151.061249 
	C229.322906,150.364410 231.718460,149.665833 234.491852,148.971191 
	C235.877289,148.972961 236.884888,148.970810 237.999298,149.361389 
	C241.404068,150.169418 244.702042,150.584717 248.000000,151.000000 
	C248.000000,152.066666 248.000000,153.133347 248.000000,154.600006 
	C241.366257,154.870316 234.647095,154.065521 228.133972,154.889404 
	C224.764404,155.315674 221.299728,158.157532 218.668808,160.719986 
	C205.683243,173.367691 192.962753,186.287537 180.147369,199.109985 
	C176.269501,202.990021 174.703110,207.446823 175.243408,213.100677 
	C175.728439,218.176147 175.196487,223.382507 174.762375,228.501404 
	C174.415878,232.587082 166.689438,241.350906 162.617050,241.435181 
	C158.013992,241.530411 156.103363,244.440567 153.879486,247.640610 
	C152.285645,248.000000 150.571289,248.000000 148.440018,247.741272 
	C147.967102,247.319244 147.911102,247.155914 147.915115,246.670578 
	C148.041901,245.917374 148.108658,245.486176 148.175415,245.054993 
z"/>
<path fill="#4D348E" opacity="1.000000" stroke="none" 
	d="
M208.534851,9.501394 
	C207.258301,11.218596 206.164658,13.116618 204.675110,14.623263 
	C195.890411,23.508862 186.883972,32.180023 178.271408,41.227253 
	C176.433533,43.157890 175.004684,46.321171 174.939972,48.954727 
	C174.609207,62.417641 174.787079,75.893051 174.787079,91.149437 
	C177.838852,88.831383 179.861435,87.622742 181.484833,86.011818 
	C199.696915,67.939766 217.807739,49.765537 236.049332,31.723440 
	C239.569885,28.241367 243.537567,25.211342 247.649490,21.986391 
	C248.000000,22.750000 248.000000,23.500000 247.660110,24.652237 
	C240.714783,31.367533 234.040512,37.611961 227.591553,44.081017 
	C226.790787,44.884289 227.186462,46.880299 226.983353,48.504654 
	C226.794083,48.920460 226.583786,49.033588 225.970612,48.911057 
	C223.558182,50.026989 221.483200,51.256943 219.408234,52.486893 
	C219.981583,53.089695 220.554947,53.692505 221.072449,54.598053 
	C220.096695,55.632725 219.176804,56.364655 218.147736,56.773323 
	C215.364807,54.167782 215.341431,56.473602 214.912888,58.379272 
	C214.691483,58.757900 214.499481,58.907433 213.886566,58.999348 
	C211.854706,60.304329 210.076782,61.480453 208.556824,62.927544 
	C197.331818,73.614517 186.158203,84.355492 174.590988,94.943771 
	C173.809891,93.144318 173.113007,91.490646 173.055496,89.815033 
	C172.852951,83.912239 172.869781,78.001915 172.848694,71.622116 
	C172.964935,61.111450 173.035904,51.073124 173.106857,41.034801 
	C173.585358,40.751427 174.063873,40.468056 175.100601,39.951950 
	C184.737534,30.821871 193.856934,21.965099 202.830658,12.963107 
	C203.707916,12.083082 203.688263,10.308957 204.071136,8.581615 
	C204.031876,7.968700 204.006424,7.724020 204.314423,7.454954 
	C205.092926,7.408778 205.538025,7.386989 206.083069,7.737626 
	C206.862717,8.289479 207.542404,8.468906 208.303040,8.860584 
	C208.383987,9.072835 208.534851,9.501391 208.534851,9.501394 
z"/>
<path fill="#FEFDF7" opacity="1.000000" stroke="none" 
	d="
M173.000000,0.999997 
	C192.354233,1.000000 211.708450,1.000000 231.530029,1.329486 
	C231.989777,2.097974 231.982208,2.536974 231.815704,3.269075 
	C230.104584,4.369361 228.552414,5.176547 226.723419,5.706814 
	C221.280060,5.642210 216.113525,5.854524 210.546112,5.995526 
	C206.525650,5.093049 202.850739,3.463060 199.558777,6.787229 
	C193.619797,12.784338 187.588287,18.692968 181.776657,24.810730 
	C180.406174,26.253389 179.756058,28.380371 178.600464,30.422318 
	C178.237503,30.687561 178.048630,30.723038 177.741882,30.468105 
	C176.473434,29.779142 175.322861,29.380585 173.994324,28.648890 
	C173.841599,24.868582 173.866806,21.421412 174.186920,18.070694 
	C174.684402,18.125393 174.886993,18.083637 175.433960,18.022394 
	C178.854584,15.003870 181.930862,12.004829 185.305191,8.966995 
	C185.914001,8.514905 186.224777,8.101609 186.535553,7.688313 
	C186.012100,7.468634 185.488632,7.248954 184.624268,6.870301 
	C181.200424,6.129215 178.117493,5.547104 174.978485,4.646313 
	C174.281631,3.218420 173.640823,2.109207 173.000000,0.999997 
z"/>
<path fill="#03080F" opacity="1.000000" stroke="none" 
	d="
M248.000000,74.000000 
	C248.000000,83.687561 248.000000,93.375122 247.531342,103.531578 
	C239.426743,104.000267 231.789703,104.068314 224.155685,103.947151 
	C222.456848,103.920181 220.768585,103.227150 218.173691,102.635025 
	C228.131012,92.618378 237.112778,83.565475 246.141006,74.559189 
	C246.544785,74.156387 247.370712,74.176750 248.000000,74.000000 
z"/>
<path fill="#31AF69" opacity="1.000000" stroke="none" 
	d="
M1.000000,157.333328 
	C6.946586,156.699478 12.918620,156.646255 18.833502,156.037613 
	C26.743010,155.223724 33.025867,151.022964 38.810558,145.792496 
	C49.406010,136.212204 60.156544,126.803421 70.842415,117.323128 
	C70.176498,116.289711 69.510582,115.256294 68.844666,114.222878 
	C67.308029,113.813828 65.774467,113.064171 64.234268,113.050285 
	C53.097370,112.949844 41.950775,112.759277 30.826557,113.148697 
	C27.599642,113.261665 23.570063,114.294754 21.411610,116.427406 
	C15.839231,121.933174 9.824140,125.082916 1.455924,123.994072 
	C1.000000,122.611107 1.000000,121.222221 1.435649,119.420319 
	C3.896603,119.030396 5.921908,119.053482 8.152888,119.340805 
	C11.675091,122.131676 13.785147,119.777679 15.839605,117.657089 
	C19.516397,113.861954 23.347698,110.395836 29.437721,109.965233 
	C44.111446,110.001366 58.314243,110.001366 73.188843,110.001366 
	C72.665894,112.552734 72.315010,114.264633 71.663651,116.135193 
	C68.857094,118.870506 66.349190,121.445381 63.845268,124.024117 
	C54.517357,133.630753 45.190750,143.238647 35.511864,152.913834 
	C31.299843,154.678207 27.568949,157.315094 23.551361,157.867706 
	C16.122871,158.889481 8.526462,158.690475 1.000000,159.000000 
	C1.000000,158.555557 1.000000,158.111099 1.000000,157.333328 
z"/>
<path fill="#788291" opacity="1.000000" stroke="none" 
	d="
M80.412735,71.766357 
	C79.409523,71.951569 78.650711,71.907539 77.412460,71.511627 
	C75.620987,71.114113 74.308937,71.068497 72.996895,71.022881 
	C69.970589,71.017693 66.944283,71.012512 63.024055,70.994736 
	C41.753429,70.654762 21.376715,70.327377 1.000000,70.000000 
	C1.000000,68.285645 1.000000,66.571281 1.468366,64.447227 
	C16.229847,64.040543 30.523010,64.066414 44.816059,64.036987 
	C52.027325,64.022141 59.392735,65.012039 66.016495,61.417198 
	C63.804337,63.565388 61.639847,65.374878 58.345039,68.129303 
	C66.382698,68.129303 73.129341,68.129303 80.058624,68.162674 
	C80.241264,68.196037 80.612206,68.179054 80.612206,68.179054 
	C80.627182,69.298409 80.642159,70.417755 80.412735,71.766357 
z"/>
<path fill="#F9F6E9" opacity="1.000000" stroke="none" 
	d="
M248.000000,34.000000 
	C248.000000,42.687565 248.000000,51.375126 247.573120,60.540257 
	C238.150665,62.495831 229.198486,62.522839 220.774490,61.475445 
	C229.480896,52.172329 237.789948,43.273659 246.153000,34.426048 
	C246.514404,34.043694 247.373001,34.131310 248.000000,34.000000 
z"/>
<path fill="#7A7A84" opacity="1.000000" stroke="none" 
	d="
M237.892502,148.968658 
	C236.884888,148.970810 235.877289,148.972961 234.029114,148.976486 
	C230.462692,148.976135 227.736816,148.974411 224.541687,148.962357 
	C208.982925,148.951675 193.893188,148.990250 178.804199,148.902023 
	C176.903305,148.890915 175.006302,148.212677 173.085098,147.406250 
	C172.934967,144.019455 172.807220,141.069916 172.764557,137.646057 
	C172.811295,128.783844 172.772934,120.395958 172.836639,111.781013 
	C172.938705,111.553947 173.050064,111.068649 173.433197,110.905014 
	C181.257812,110.441391 188.700394,110.166580 196.140320,109.832161 
	C200.755875,109.624710 205.367340,109.326866 210.438324,109.087296 
	C223.263992,109.403336 235.632004,109.701668 248.000000,110.000000 
	C248.000000,110.444443 248.000000,110.888893 248.000000,111.666672 
	C225.862946,111.989395 203.725815,112.004944 181.588898,111.946159 
	C177.155029,111.934387 174.847534,113.404037 174.994461,118.377457 
	C175.210358,125.685776 174.764725,133.011444 174.712296,140.330521 
	C174.664612,146.986221 174.730118,146.980240 181.149719,146.980148 
	C203.120728,146.979797 225.091751,146.984375 247.531372,146.993530 
	C248.000000,147.444443 248.000000,147.888901 247.544708,148.661591 
	C244.023773,148.982773 240.958130,148.975708 237.892502,148.968658 
z"/>
<path fill="#797C8E" opacity="1.000000" stroke="none" 
	d="
M79.733208,185.961243 
	C78.755920,186.003784 77.778633,186.046326 75.972321,186.051117 
	C50.428864,186.008911 25.714432,186.004456 1.000000,186.000000 
	C1.000000,184.285797 1.000000,182.571579 1.468632,180.428894 
	C12.851985,179.735016 24.140793,181.885834 34.003014,175.380188 
	C31.901060,177.640762 29.831379,179.552032 27.761698,181.463303 
	C27.955412,182.006912 28.149126,182.550522 28.342840,183.094147 
	C31.259007,182.749741 34.175175,182.405350 37.554218,182.057388 
	C51.611958,182.058899 65.206818,182.063980 78.846588,182.311646 
	C78.891487,182.554230 78.985497,183.038635 79.108398,183.370956 
	C79.693268,184.545181 80.155235,185.387085 80.357307,186.290466 
	C79.976013,186.221710 79.854614,186.091492 79.733208,185.961243 
z"/>
<path fill="#677386" opacity="1.000000" stroke="none" 
	d="
M214.259949,58.995953 
	C214.499481,58.907433 214.691483,58.757900 215.282074,58.318901 
	C216.216751,58.170277 216.705353,58.250107 217.124115,58.684456 
	C216.374664,60.766155 215.695023,62.493336 215.102142,64.000000 
	C226.484634,64.000000 237.242310,64.000000 248.000000,64.000000 
	C248.000000,64.000000 248.000000,64.500000 247.658173,64.893967 
	C245.575424,66.294090 243.532181,67.003082 242.173630,68.385117 
	C240.636581,69.948738 239.993530,72.382446 238.476624,73.976059 
	C231.292282,81.523773 224.256241,89.263596 216.516556,96.209839 
	C212.746841,99.593109 210.148514,105.114479 203.952637,105.253448 
	C194.009888,105.476440 184.066422,105.667419 174.093719,105.485657 
	C173.952072,104.065994 173.839966,103.032600 173.843964,101.775940 
	C174.023834,101.397499 174.087616,101.242332 174.453903,101.046326 
	C175.508102,100.673302 176.259766,100.341118 177.024368,100.414520 
	C178.373703,101.883263 179.602783,103.638344 181.068817,103.865707 
	C184.133148,104.340950 187.329193,104.140579 190.458878,103.979622 
	C194.976501,103.747284 199.483261,103.303391 204.344711,102.913132 
	C205.994629,102.185616 207.557526,101.757835 208.553009,100.762550 
	C217.088806,92.228561 225.521942,83.591888 234.307434,74.847549 
	C235.842865,73.220703 237.056595,71.732208 239.179489,69.128708 
	C229.355850,69.128708 221.255264,68.906715 213.184372,69.297546 
	C211.353668,69.386200 209.625931,71.601051 207.506622,72.849899 
	C206.723984,72.751762 206.285507,72.640953 205.838867,72.180466 
	C208.640457,67.552513 211.450211,63.274235 214.259949,58.995953 
z"/>
<path fill="#0B1B31" opacity="1.000000" stroke="none" 
	d="
M248.000000,109.571533 
	C235.632004,109.701668 223.263992,109.403336 210.454529,108.715103 
	C211.027496,106.701920 211.786240,104.826881 213.097153,103.495529 
	C222.881943,93.558159 232.764236,83.716591 242.647064,73.876228 
	C244.355759,72.174873 246.211945,70.621651 248.000000,69.000000 
	C248.000000,70.388893 248.000000,71.777779 248.000000,73.583344 
	C247.370712,74.176750 246.544785,74.156387 246.141006,74.559189 
	C237.112778,83.565475 228.131012,92.618378 218.173691,102.635025 
	C220.768585,103.227150 222.456848,103.920181 224.155685,103.947151 
	C231.789703,104.068314 239.426743,104.000267 247.531342,104.000237 
	C248.000000,105.714355 248.000000,107.428719 248.000000,109.571533 
z"/>
<path fill="#273D5C" opacity="1.000000" stroke="none" 
	d="
M248.000000,68.600006 
	C246.211945,70.621651 244.355759,72.174873 242.647064,73.876228 
	C232.764236,83.716591 222.881943,93.558159 213.097153,103.495529 
	C211.786240,104.826881 211.027496,106.701920 209.996857,108.697388 
	C205.367340,109.326866 200.755875,109.624710 196.140320,109.832161 
	C188.700394,110.166580 181.257812,110.441391 173.405258,110.560051 
	C172.989487,109.918472 172.984802,109.458221 173.229797,108.828140 
	C173.617050,108.088600 173.754639,107.518898 173.932693,106.676163 
	C174.023209,106.226059 174.073242,106.048988 174.123260,105.871918 
	C184.066422,105.667419 194.009888,105.476440 203.952637,105.253448 
	C210.148514,105.114479 212.746841,99.593109 216.516556,96.209839 
	C224.256241,89.263596 231.292282,81.523773 238.476624,73.976059 
	C239.993530,72.382446 240.636581,69.948738 242.173630,68.385117 
	C243.532181,67.003082 245.575424,66.294090 247.658173,65.143967 
	C248.000000,66.066673 248.000000,67.133339 248.000000,68.600006 
z"/>
<path fill="#CED0CE" opacity="1.000000" stroke="none" 
	d="
M66.064171,61.078503 
	C59.392735,65.012039 52.027325,64.022141 44.816059,64.036987 
	C30.523010,64.066414 16.229847,64.040543 1.468366,64.018768 
	C1.000000,63.250000 1.000000,62.500000 1.000000,61.375000 
	C17.813528,61.012878 34.647606,60.538620 51.431808,61.246666 
	C59.672218,61.594292 65.266968,58.843464 70.064102,52.598743 
	C72.751678,49.100155 76.224174,46.204536 79.684158,43.024544 
	C80.079155,44.067318 80.133011,45.122787 79.719452,46.569191 
	C77.174538,49.313232 75.097038,51.666344 73.009766,54.009727 
	C73.000000,54.000000 73.019493,54.019459 72.675613,54.031010 
	C71.556328,55.039116 70.780930,56.035671 69.860260,57.211563 
	C69.508827,57.620415 69.284988,57.831154 68.697220,58.022842 
	C67.592087,59.035366 66.833206,60.048153 66.064857,61.051155 
	C66.055389,61.041363 66.064171,61.078503 66.064171,61.078503 
z"/>
<path fill="#ABB1B5" opacity="1.000000" stroke="none" 
	d="
M248.000000,63.625000 
	C237.242310,64.000000 226.484634,64.000000 215.102142,64.000000 
	C215.695023,62.493336 216.374664,60.766155 217.334351,58.508385 
	C217.828583,57.684055 218.042755,57.390320 218.256927,57.096588 
	C219.176804,56.364655 220.096695,55.632725 221.366043,54.414814 
	C223.246368,52.294247 224.777206,50.659660 226.308060,49.025070 
	C226.583786,49.033588 226.794083,48.920460 227.295288,48.340107 
	C234.122421,41.579777 240.593231,35.165024 247.289459,28.844770 
	C247.514893,28.939272 248.000000,29.000000 248.000000,29.000000 
	C248.000000,30.388889 248.000000,31.777779 248.000000,33.583336 
	C247.373001,34.131310 246.514404,34.043694 246.153000,34.426048 
	C237.789948,43.273659 229.480896,52.172329 220.774490,61.475445 
	C229.198486,62.522839 238.150665,62.495831 247.573120,61.008911 
	C248.000000,61.750000 248.000000,62.500000 248.000000,63.625000 
z"/>
<path fill="#654D93" opacity="1.000000" stroke="none" 
	d="
M36.049892,229.925537 
	C34.422550,228.978683 32.816299,227.257385 31.164392,227.212402 
	C21.427324,226.947235 11.679640,227.072205 1.467766,227.032898 
	C1.000000,225.611115 1.000000,224.222214 1.468039,222.444061 
	C15.270788,222.074402 28.605497,222.094009 42.058090,222.334671 
	C42.466194,222.968155 42.756420,223.380554 42.833206,223.952744 
	C42.401566,224.387207 42.183369,224.661880 41.563583,224.953644 
	C37.077518,224.763321 38.128864,227.746353 38.020233,230.011139 
	C38.011547,230.008072 38.020981,230.031891 37.691841,230.016113 
	C36.925095,229.975403 36.487492,229.950470 36.049892,229.925537 
z"/>
<path fill="#979BA1" opacity="1.000000" stroke="none" 
	d="
M1.000000,70.333328 
	C21.376715,70.327377 41.753429,70.654762 62.570778,70.999771 
	C61.714169,71.674347 60.422565,72.889137 59.118824,72.902306 
	C45.498707,73.039894 31.875736,73.075211 18.255568,72.938416 
	C12.811628,72.883743 7.372685,72.331772 1.465734,72.003082 
	C1.000000,71.555557 1.000000,71.111107 1.000000,70.333328 
z"/>
<path fill="#919096" opacity="1.000000" stroke="none" 
	d="
M41.940208,222.113602 
	C28.605497,222.094009 15.270788,222.074402 1.468039,222.027405 
	C1.000000,221.555557 1.000000,221.111099 1.467910,220.363373 
	C26.630535,220.011322 51.325253,219.962540 76.019966,219.913757 
	C77.077942,219.911057 78.135910,219.908340 79.791168,219.786011 
	C80.553833,219.723892 80.719200,219.781418 80.615158,220.132996 
	C80.155052,220.920883 79.964340,221.414703 79.422043,221.987045 
	C78.440636,222.269363 77.808441,222.657700 77.181328,222.649658 
	C65.433922,222.499039 53.687130,222.301392 41.940208,222.113602 
z"/>
<path fill="#7A8797" opacity="1.000000" stroke="none" 
	d="
M56.009430,140.007553 
	C51.131683,144.823822 46.253929,149.640091 40.840000,154.742920 
	C34.160931,157.688675 28.232458,161.300537 21.816090,162.744675 
	C15.122301,164.251266 7.958383,163.669037 1.000000,164.000000 
	C1.000000,163.250000 1.000000,162.500000 1.467624,161.410004 
	C7.093554,161.067368 12.254969,160.950226 17.409405,161.090149 
	C24.362173,161.278885 30.333927,158.679367 36.294983,154.863342 
	C40.192936,151.560776 43.757580,148.367004 47.367271,145.224991 
	C50.194244,142.764297 53.077015,140.367706 55.966602,138.286133 
	C56.001953,139.088959 56.005692,139.548248 56.009430,140.007553 
z"/>
<path fill="#D8C0B2" opacity="1.000000" stroke="none" 
	d="
M1.000000,186.333328 
	C25.714432,186.004456 50.428864,186.008911 75.609764,186.118683 
	C74.381302,186.806534 72.688850,187.887894 70.991066,187.896332 
	C47.973518,188.010834 24.955235,187.976440 1.468566,187.989426 
	C1.000000,187.555557 1.000000,187.111099 1.000000,186.333328 
z"/>
<path fill="#E9CDBA" opacity="1.000000" stroke="none" 
	d="
M75.916504,219.528107 
	C51.325253,219.962540 26.630535,220.011322 1.467910,220.030060 
	C1.000000,219.555557 1.000000,219.111099 1.000000,218.333328 
	C24.089048,218.004471 47.178185,217.983200 70.266975,218.062210 
	C72.116875,218.068558 73.964401,218.766113 75.916504,219.528107 
z"/>
<path fill="#C2C6C5" opacity="1.000000" stroke="none" 
	d="
M34.035290,175.030869 
	C24.140793,181.885834 12.851985,179.735016 1.468632,180.000214 
	C1.000000,179.250000 1.000000,178.500000 1.000000,177.375000 
	C7.613585,177.000549 14.292754,177.559784 20.816374,176.793945 
	C24.785494,176.328003 29.017195,174.489532 32.240570,172.077667 
	C37.883625,167.855240 42.841530,162.717148 48.527122,157.968719 
	C48.967758,157.974747 49.188225,158.188263 49.129135,158.503418 
	C49.082779,159.243439 49.095512,159.668304 48.964363,160.286240 
	C48.609364,160.723404 48.372807,160.939651 47.759884,161.102936 
	C46.651897,162.090851 45.894840,163.103897 44.975029,164.293152 
	C44.579487,164.690750 44.325630,164.884491 43.714081,165.045624 
	C42.946297,165.719376 42.515137,166.398102 41.943333,167.270584 
	C41.593819,167.708710 41.355610,167.920029 40.738621,168.077026 
	C39.625061,169.062119 38.860947,170.068466 38.057701,171.046783 
	C38.018570,171.018753 38.074768,171.096939 37.727219,171.078979 
	C36.597160,172.052078 35.814648,173.043121 34.894096,174.226929 
	C34.548233,174.661682 34.307980,174.865402 34.035290,175.030869 
z"/>
<path fill="#CFDAD8" opacity="1.000000" stroke="none" 
	d="
M172.531342,0.999997 
	C173.640823,2.109207 174.281631,3.218420 174.842743,4.783410 
	C174.763046,5.239186 174.492065,5.512720 174.204422,5.359206 
	C171.163406,5.909547 168.410034,6.613401 165.286377,7.194375 
	C162.252563,6.761247 159.589066,6.450999 156.925552,6.140754 
	C155.198471,5.211894 153.507935,3.569526 151.737915,3.478858 
	C144.443863,3.105224 137.125687,3.202565 129.358215,2.640286 
	C128.933380,1.769206 128.966690,1.384603 129.000000,1.000000 
	C143.354233,1.000000 157.708450,1.000000 172.531342,0.999997 
z"/>
<path fill="#030B16" opacity="1.000000" stroke="none" 
	d="
M147.743149,245.007217 
	C148.108658,245.486176 148.041901,245.917374 147.717224,246.784164 
	C147.223923,247.431396 147.070816,247.691467 147.000000,248.000000 
	C135.312439,248.000000 123.624878,248.000000 111.468658,248.000000 
	C111.915642,246.688507 112.834503,244.236435 113.746452,244.239014 
	C124.935188,244.270538 136.122910,244.661469 147.743149,245.007217 
z"/>
<path fill="#C2C6C5" opacity="1.000000" stroke="none" 
	d="
M1.000000,164.333328 
	C7.958383,163.669037 15.122301,164.251266 21.816090,162.744675 
	C28.232458,161.300537 34.160931,157.688675 40.660835,155.025864 
	C38.049587,161.353256 31.848616,163.634796 26.037104,164.699188 
	C18.186968,166.136963 9.987041,165.664902 1.468602,166.006165 
	C1.000000,165.555557 1.000000,165.111099 1.000000,164.333328 
z"/>
<path fill="#283565" opacity="1.000000" stroke="none" 
	d="
M247.064041,28.750267 
	C240.593231,35.165024 234.122421,41.579777 227.339676,48.159073 
	C227.186462,46.880299 226.790787,44.884289 227.591553,44.081017 
	C234.040512,37.611961 240.714783,31.367533 247.660110,25.027237 
	C248.000000,25.750000 248.000000,26.500000 247.800507,27.693411 
	C247.332947,28.263384 247.153946,28.467863 247.064041,28.750267 
z"/>
<path fill="#3A6E6F" opacity="1.000000" stroke="none" 
	d="
M35.981094,154.994461 
	C30.333927,158.679367 24.362173,161.278885 17.409405,161.090149 
	C12.254969,160.950226 7.093554,161.067368 1.467624,161.035004 
	C1.000000,160.555557 1.000000,160.111099 1.000000,159.333328 
	C8.526462,158.690475 16.122871,158.889481 23.551361,157.867706 
	C27.568949,157.315094 31.299843,154.678207 35.556763,153.271729 
	C35.962666,154.039398 35.971882,154.516922 35.981094,154.994461 
z"/>
<path fill="#DFADFB" opacity="1.000000" stroke="none" 
	d="
M227.000229,5.983732 
	C228.552414,5.176547 230.104584,4.369361 232.090149,3.163109 
	C233.015686,2.176030 233.507843,1.588017 234.000000,1.000002 
	C234.444443,1.000000 234.888901,1.000000 235.666672,1.000000 
	C232.098587,9.464196 219.776154,13.455045 209.559662,8.998506 
	C209.921051,8.268661 210.511703,8.029260 211.550842,7.850291 
	C216.999634,7.268393 221.999939,6.626062 227.000229,5.983732 
z"/>
<path fill="#5E6F83" opacity="1.000000" stroke="none" 
	d="
M103.428467,248.000000 
	C101.767220,246.999146 100.626511,245.845596 99.279854,245.033585 
	C97.304665,243.842529 95.182129,242.895828 93.045151,241.506149 
	C97.682808,241.926117 102.436325,242.518463 107.077446,243.595230 
	C107.925919,243.792084 108.316681,245.961746 108.959366,247.610352 
	C107.285645,248.000000 105.571281,248.000000 103.428467,248.000000 
z"/>
<path fill="#828A9A" opacity="1.000000" stroke="none" 
	d="
M7.947212,119.076569 
	C5.921908,119.053482 3.896603,119.030396 1.435649,119.003654 
	C1.000000,118.555557 1.000000,118.111107 1.414573,117.304214 
	C5.391785,115.187401 11.268424,118.225937 13.317282,111.000000 
	C8.715460,111.000000 4.857730,111.000000 1.000000,111.000000 
	C1.000000,110.555557 1.000000,110.111107 1.458535,109.348785 
	C3.897016,109.034721 5.982254,108.643684 7.831700,109.136871 
	C10.463023,109.838547 12.921130,111.189796 15.331388,112.615570 
	C15.283379,117.969543 9.847372,116.421349 7.947212,119.076569 
z"/>
<path fill="#F5F6F8" opacity="1.000000" stroke="none" 
	d="
M128.531342,1.000000 
	C128.966690,1.384603 128.933380,1.769206 128.922729,2.442760 
	C119.646545,2.878481 110.347687,3.025252 100.256241,3.046269 
	C98.954498,2.941334 98.445351,2.962153 97.936203,2.982971 
	C97.636490,2.516574 97.336769,2.050177 97.018524,1.291890 
	C107.354225,1.000000 117.708458,1.000000 128.531342,1.000000 
z"/>
<path fill="#B6BABC" opacity="1.000000" stroke="none" 
	d="
M1.000000,111.428467 
	C4.857730,111.000000 8.715460,111.000000 13.317282,111.000000 
	C11.268424,118.225937 5.391785,115.187401 1.414573,116.970886 
	C1.000000,115.285645 1.000000,113.571281 1.000000,111.428467 
z"/>
<path fill="#402B85" opacity="1.000000" stroke="none" 
	d="
M35.755100,230.099243 
	C36.487492,229.950470 36.925095,229.975403 37.649582,230.380936 
	C37.632000,232.187027 37.327530,233.612518 37.018379,235.027069 
	C37.013699,235.016129 37.043674,235.036911 36.675240,235.015442 
	C31.871204,239.329330 27.435602,243.664658 23.000000,248.000000 
	C22.250000,248.000000 21.500000,248.000000 20.374996,248.000000 
	C22.127602,245.365707 24.171103,242.657562 26.403627,240.115433 
	C29.344810,236.766357 32.434483,233.547684 35.755100,230.099243 
z"/>
<path fill="#616D81" opacity="1.000000" stroke="none" 
	d="
M15.453241,112.263527 
	C12.921130,111.189796 10.463023,109.838547 7.831700,109.136871 
	C5.982254,108.643684 3.897016,109.034721 1.458535,109.015457 
	C1.000000,108.555557 1.000000,108.111107 1.467819,107.327759 
	C7.640756,106.619171 13.345875,106.249489 19.050993,105.879807 
	C19.505415,105.913315 19.959839,105.946831 20.661438,106.407730 
	C19.090158,108.644592 17.271702,110.454063 15.453241,112.263527 
z"/>
<path fill="#2B4065" opacity="1.000000" stroke="none" 
	d="
M23.375000,248.000000 
	C27.435602,243.664658 31.871204,239.329330 36.541626,235.321396 
	C34.176151,238.756424 31.575859,241.864044 28.983732,244.978409 
	C28.991898,244.985153 28.971781,244.975845 28.631474,244.992767 
	C27.527445,246.006470 26.763725,247.003235 26.000004,248.000000 
	C25.250000,248.000000 24.500000,248.000000 23.375000,248.000000 
z"/>
<path fill="#9B9FA4" opacity="1.000000" stroke="none" 
	d="
M1.000000,103.333328 
	C5.446461,103.001442 9.896199,102.906631 14.337563,103.057808 
	C15.843077,103.109055 17.327436,103.781738 18.453533,104.590256 
	C12.390403,105.006721 6.695201,105.003365 1.000000,105.000000 
	C1.000000,104.555557 1.000000,104.111107 1.000000,103.333328 
z"/>
<path fill="#74858B" opacity="1.000000" stroke="none" 
	d="
M1.000000,105.333336 
	C6.695201,105.003365 12.390403,105.006721 18.555767,104.981552 
	C19.025932,104.953033 19.045143,105.417252 19.048069,105.648529 
	C13.345875,106.249489 7.640756,106.619171 1.467819,106.994431 
	C1.000000,106.555557 1.000000,106.111107 1.000000,105.333336 
z"/>
<path fill="#41546F" opacity="1.000000" stroke="none" 
	d="
M237.999298,149.361389 
	C240.958130,148.975708 244.023773,148.982773 247.544708,148.994904 
	C248.000000,149.444443 248.000000,149.888901 248.000000,150.666672 
	C244.702042,150.584717 241.404068,150.169418 237.999298,149.361389 
z"/>
<path fill="#6B7C8C" opacity="1.000000" stroke="none" 
	d="
M26.375004,248.000000 
	C26.763725,247.003235 27.527445,246.006470 28.639614,245.374802 
	C28.992043,246.493271 28.996021,247.246628 29.000000,248.000000 
	C28.250000,248.000000 27.500000,248.000000 26.375004,248.000000 
z"/>
<path fill="#C0C5C3" opacity="1.000000" stroke="none" 
	d="
M29.333332,248.000000 
	C28.996021,247.246628 28.992043,246.493271 28.979923,245.357880 
	C28.971781,244.975845 28.991898,244.985153 29.327503,245.002823 
	C30.120632,245.030899 30.578156,245.041306 31.035679,245.051727 
	C31.006765,245.788834 30.977854,246.525970 30.974470,247.631546 
	C30.555555,248.000000 30.111111,248.000000 29.333332,248.000000 
z"/>
<path fill="#F0DAFD" opacity="1.000000" stroke="none" 
	d="
M233.666672,1.000002 
	C233.507843,1.588017 233.015686,2.176030 232.249069,2.870009 
	C231.982208,2.536974 231.989777,2.097974 231.998688,1.329486 
	C232.444443,1.000000 232.888901,1.000000 233.666672,1.000002 
z"/>
<path fill="#07224A" opacity="1.000000" stroke="none" 
	d="
M147.250000,248.000000 
	C147.070816,247.691467 147.223923,247.431396 147.657196,247.106186 
	C147.911102,247.155914 147.967102,247.319244 148.011551,247.741272 
	C148.000000,248.000000 147.500000,248.000000 147.250000,248.000000 
z"/>
<path fill="#4D348E" opacity="1.000000" stroke="none" 
	d="
M247.289459,28.844769 
	C247.153946,28.467863 247.332947,28.263384 247.800507,28.068411 
	C248.000000,28.000000 248.000000,28.500000 248.000000,28.750000 
	C248.000000,29.000000 247.514893,28.939272 247.289459,28.844769 
z"/>
<path fill="#60728B" opacity="1.000000" stroke="none" 
	d="
M89.912292,8.915987 
	C88.260330,10.302189 86.608368,11.688392 84.612999,13.104506 
	C84.128731,12.666741 83.987869,12.199065 84.140045,11.271975 
	C84.785004,10.376088 85.136925,9.939616 85.488853,9.503145 
	C86.105286,9.340105 86.721718,9.177065 87.953316,8.938329 
	C89.016418,8.880418 89.464355,8.898203 89.912292,8.915987 
z"/>
<path fill="#CFDAD8" opacity="1.000000" stroke="none" 
	d="
M89.917709,8.924202 
	C89.464355,8.898203 89.016418,8.880418 88.237152,8.792263 
	C88.204140,7.699536 88.502441,6.677179 88.949509,5.364241 
	C89.921242,5.173125 90.744202,5.272592 91.591446,5.864336 
	C91.049644,7.208555 90.483566,8.060496 89.917488,8.912437 
	C89.917488,8.912437 89.923119,8.932416 89.917709,8.924202 
z"/>
<path fill="#CED0CE" opacity="1.000000" stroke="none" 
	d="
M85.187790,9.374765 
	C85.136925,9.939616 84.785004,10.376088 84.158600,10.894506 
	C84.218323,10.399762 84.552521,9.823073 85.187790,9.374765 
z"/>
<path fill="#3D4F70" opacity="1.000000" stroke="none" 
	d="
M98.041382,235.116302 
	C96.601456,233.860794 95.161522,232.605286 93.414368,230.691208 
	C93.069519,209.789139 93.147949,189.544037 92.865150,169.303955 
	C92.824242,166.375732 91.049911,163.471725 90.077728,160.556503 
	C90.457260,158.118423 90.836792,155.680344 91.534988,152.702606 
	C91.961678,148.695389 92.069695,145.227829 92.177719,141.760269 
	C92.208275,136.880005 92.238831,131.999725 92.470924,126.391479 
	C92.745255,124.769081 92.818054,123.874664 92.834549,122.743668 
	C92.595444,122.222412 92.345398,122.021339 92.025497,121.443069 
	C92.367897,115.044289 93.039055,109.104279 93.002365,103.168648 
	C92.828705,75.072426 92.461678,46.977409 92.163559,18.881962 
	C95.003632,16.828335 97.843704,14.774711 101.318008,12.404486 
	C118.986366,12.084433 136.020493,12.080981 153.054626,12.077530 
	C155.466858,13.630513 157.879089,15.183497 160.627762,17.332253 
	C161.270218,29.868479 161.847198,41.809551 161.820190,53.749256 
	C161.777191,72.752777 161.251083,91.754776 161.104919,110.758766 
	C161.060410,116.547470 161.773254,122.338966 161.826981,128.132065 
	C161.962585,142.755295 161.920624,157.380157 161.939804,172.403839 
	C161.954391,173.868988 161.978989,174.934647 161.983704,176.467896 
	C161.989517,182.623672 162.015213,188.311844 162.012115,194.399429 
	C162.004074,195.865799 162.024841,196.932755 162.020065,198.465271 
	C162.021957,203.621017 162.049377,208.311188 162.041443,213.417099 
	C162.279373,215.919144 162.552658,218.005447 162.831116,220.507477 
	C162.831131,222.586212 162.825989,224.249252 162.591187,226.152817 
	C162.212540,227.261444 162.063568,228.129532 161.761993,229.285706 
	C160.382172,231.333939 159.154953,233.094101 157.612503,234.886230 
	C156.539886,234.726593 155.782516,234.534988 155.177551,233.999939 
	C156.776825,229.884537 159.472229,226.116776 159.484863,222.340012 
	C159.704376,156.679230 159.594467,91.017334 159.556702,25.355680 
	C159.552872,18.696066 154.488129,13.715235 147.736664,13.717199 
	C133.904205,13.721225 120.071754,13.717635 106.239296,13.717193 
	C100.016693,13.716993 94.674644,18.985147 94.682755,25.114702 
	C94.769150,90.441460 94.933899,155.768372 94.800148,221.094681 
	C94.788925,226.578217 95.433578,231.050644 99.823364,234.632767 
	C99.126778,234.947632 98.584076,235.031967 98.041382,235.116302 
z"/>
<path fill="#021F48" opacity="1.000000" stroke="none" 
	d="
M161.949829,172.004364 
	C161.920624,157.380157 161.962585,142.755295 161.826981,128.132065 
	C161.773254,122.338966 161.060410,116.547470 161.104919,110.758766 
	C161.251083,91.754776 161.777191,72.752777 161.820190,53.749256 
	C161.847198,41.809551 161.270218,29.868479 160.939392,17.477615 
	C164.364441,16.710913 163.841583,19.144604 164.033737,21.308084 
	C164.630692,28.029310 165.349319,34.740314 166.097916,41.446667 
	C166.180389,42.185551 166.761398,42.868790 167.123535,43.602882 
	C169.024826,42.663036 170.685364,41.842201 172.726379,41.028084 
	C173.035904,51.073124 172.964935,61.111450 172.596954,71.930748 
	C172.198715,79.806755 172.097534,86.901779 171.634308,93.960129 
	C169.978653,94.102592 167.698563,94.022949 167.571289,94.508087 
	C167.142792,96.141396 167.042542,98.180489 167.725220,99.639160 
	C168.027481,100.284973 170.507401,99.911606 172.239151,100.165512 
	C172.647369,100.874466 172.815231,101.418800 172.728394,102.180794 
	C172.315613,103.265167 172.157501,104.131882 171.998627,105.248222 
	C171.997864,105.497849 171.996948,105.997093 171.667633,105.948700 
	C170.004440,105.781410 167.644058,105.245369 167.496475,105.608543 
	C166.115189,109.007622 164.166489,112.559509 164.161789,116.069565 
	C164.139023,133.096420 164.688599,150.123657 164.972977,167.151810 
	C165.008896,169.303680 165.858597,172.204346 161.949829,172.004364 
M167.140427,66.620583 
	C167.632599,66.736809 168.124756,66.853035 168.616928,66.969261 
	C168.616928,60.541035 168.616928,54.112812 168.616928,47.684586 
	C168.086182,47.688347 167.555435,47.692108 167.024689,47.695869 
	C167.024689,53.728771 167.024689,59.761669 167.140427,66.620583 
z"/>
<path fill="#732DB9" opacity="1.000000" stroke="none" 
	d="
M78.801689,182.069061 
	C65.206818,182.063980 51.611958,182.058899 37.557178,181.688660 
	C38.605530,178.837906 39.708469,175.955551 41.689022,173.932251 
	C53.037113,162.339249 64.560555,150.916641 76.131088,139.544647 
	C77.275269,138.420090 79.139862,138.028519 80.670090,137.296738 
	C80.774345,150.554642 80.878609,163.812531 80.714691,177.739487 
	C79.898239,179.628708 79.349968,180.848877 78.801689,182.069061 
M76.643333,143.392090 
	C76.386932,143.855698 76.130524,144.319321 75.193588,144.919556 
	C63.815483,154.293686 53.276180,164.484665 42.923443,176.420395 
	C45.444515,176.775406 46.395977,177.007355 47.352180,177.028900 
	C56.980148,177.245926 66.609627,177.530426 76.236267,177.460892 
	C77.185257,177.454041 78.118156,175.218735 79.085411,173.077179 
	C79.073013,163.384323 79.060616,153.691467 79.073982,143.309006 
	C78.960068,142.436646 78.846153,141.564301 78.572929,139.472015 
	C77.657814,141.341232 77.271942,142.129425 76.643333,143.392090 
z"/>
<path fill="#00103D" opacity="1.000000" stroke="none" 
	d="
M91.754532,18.999039 
	C92.461678,46.977409 92.828705,75.072426 93.002365,103.168648 
	C93.039055,109.104279 92.367897,115.044289 92.103676,121.670670 
	C92.347946,122.648026 92.583412,122.855080 92.890862,122.980240 
	C92.818054,123.874664 92.745255,124.769081 92.472252,125.939774 
	C91.515503,124.792587 90.103905,123.371613 90.098511,121.945328 
	C89.973938,88.978554 89.986702,56.011162 90.058754,23.044069 
	C90.061623,21.733820 90.897667,20.425392 91.754532,18.999039 
z"/>
<path fill="#343473" opacity="1.000000" stroke="none" 
	d="
M80.746109,136.900726 
	C79.139862,138.028519 77.275269,138.420090 76.131088,139.544647 
	C64.560555,150.916641 53.037113,162.339249 41.689022,173.932251 
	C39.708469,175.955551 38.605530,178.837906 37.094299,181.692230 
	C34.175175,182.405350 31.259007,182.749741 28.342840,183.094147 
	C28.149126,182.550522 27.955412,182.006912 27.761698,181.463303 
	C29.831379,179.552032 31.901060,177.640762 34.003014,175.380188 
	C34.307980,174.865402 34.548233,174.661682 35.228165,174.203064 
	C36.491772,173.023239 37.283268,172.060089 38.074768,171.096939 
	C38.074768,171.096939 38.018570,171.018753 38.387482,171.020966 
	C39.533619,170.048218 40.310841,169.073257 41.088066,168.098282 
	C41.355610,167.920029 41.593819,167.708710 42.257828,167.229706 
	C43.158878,166.346939 43.604794,165.698776 44.050705,165.050613 
	C44.325630,164.884491 44.579487,164.690750 45.300747,164.254578 
	C46.563080,163.069183 47.336941,162.098618 48.110806,161.128067 
	C48.372807,160.939651 48.609364,160.723404 49.274796,160.244781 
	C50.182438,159.374680 50.635769,158.739120 51.360367,157.907623 
	C60.028393,149.406830 68.425148,141.101990 77.146576,132.828705 
	C78.258980,132.533463 79.046715,132.206665 79.834457,131.879868 
	C80.163681,133.421494 80.492905,134.963104 80.746109,136.900726 
z"/>
<path fill="#070934" opacity="1.000000" stroke="none" 
	d="
M98.039787,235.499008 
	C98.584076,235.031967 99.126778,234.947632 100.288544,234.560211 
	C118.946785,234.285873 136.985962,234.314621 155.025131,234.343384 
	C155.782516,234.534988 156.539886,234.726593 157.694016,235.277695 
	C159.770294,236.110382 161.449829,236.583572 163.129379,237.056763 
	C161.029541,238.052780 158.929688,239.048798 156.288513,239.742310 
	C154.496704,239.288635 153.246216,239.137451 151.596710,238.985046 
	C150.134033,238.984818 149.070374,238.985809 148.006714,238.986801 
	C146.769791,238.666367 145.527054,238.047729 144.296829,238.071625 
	C132.002167,238.310516 119.710121,238.818283 107.416023,238.859894 
	C104.190742,238.870789 99.826729,240.972702 98.039787,235.499008 
z"/>
<path fill="#011C47" opacity="1.000000" stroke="none" 
	d="
M80.187088,219.834961 
	C80.020302,208.952499 80.054901,197.901443 79.911354,186.405823 
	C79.854614,186.091492 79.976013,186.221710 80.574181,186.243561 
	C81.349190,186.065826 81.650497,186.014359 81.954865,185.980759 
	C85.334251,185.756851 85.006851,188.125000 85.004715,190.304611 
	C84.994514,200.711899 84.834412,211.123245 85.089790,221.524261 
	C85.178848,225.151352 86.307114,228.752914 86.527832,232.732880 
	C82.902634,233.478882 81.755508,232.154999 81.843636,228.885147 
	C81.924606,225.880554 81.234787,222.855164 80.884560,219.838943 
	C80.719200,219.781418 80.553833,219.723892 80.187088,219.834961 
z"/>
<path fill="#000A37" opacity="1.000000" stroke="none" 
	d="
M90.058121,161.069153 
	C91.049911,163.471725 92.824242,166.375732 92.865150,169.303955 
	C93.147949,189.544037 93.069519,209.789139 93.165009,230.494873 
	C89.313576,230.781311 90.022499,227.838608 90.020462,225.452713 
	C90.002274,204.162430 90.026657,182.872116 90.058121,161.069153 
z"/>
<path fill="#304368" opacity="1.000000" stroke="none" 
	d="
M177.859741,30.758514 
	C178.048630,30.723038 178.237503,30.687561 178.905273,30.546925 
	C186.852631,23.220240 194.321121,15.998717 202.164444,8.869939 
	C203.054504,8.958405 203.569733,8.954129 204.084946,8.949852 
	C203.688263,10.308957 203.707916,12.083082 202.830658,12.963107 
	C193.856934,21.965099 184.737534,30.821871 175.362122,39.854988 
	C174.362305,38.539795 173.659210,37.088837 172.983383,35.089546 
	C173.159286,34.218891 173.410812,34.049469 174.161697,34.023361 
	C175.709732,33.013599 176.861328,32.013420 178.021271,30.921516 
	C178.029617,30.829792 177.859741,30.758514 177.859741,30.758514 
z"/>
<path fill="#326B67" opacity="1.000000" stroke="none" 
	d="
M69.043472,58.023109 
	C69.284988,57.831154 69.508827,57.620415 70.200836,57.186203 
	C71.464287,55.994156 72.241890,55.006805 73.019493,54.019459 
	C73.019493,54.019459 73.000000,54.000000 73.346115,53.995155 
	C75.364143,52.927719 77.036057,51.865124 78.830826,51.129272 
	C79.604370,51.997643 80.255043,52.539268 80.905716,53.080891 
	C80.906136,53.856560 80.906548,54.632229 80.451591,55.736290 
	C75.191597,56.115345 74.065605,59.525928 72.647476,63.991024 
	C75.630768,63.991024 77.914078,63.991024 80.197388,63.991024 
	C80.445801,64.470673 80.694214,64.950310 80.699417,65.900986 
	C80.262787,66.957787 80.069382,67.543541 79.875977,68.129303 
	C73.129341,68.129303 66.382698,68.129303 58.345039,68.129303 
	C61.639847,65.374878 63.804337,63.565388 66.016495,61.417198 
	C66.064171,61.078503 66.055389,61.041363 66.400681,61.024162 
	C67.511810,60.012344 68.277641,59.017727 69.043472,58.023109 
z"/>
<path fill="#000330" opacity="1.000000" stroke="none" 
	d="
M152.989868,11.676857 
	C136.020493,12.080981 118.986366,12.084433 101.485641,12.108339 
	C102.390671,11.087783 103.749023,9.162709 105.135986,9.141873 
	C119.762772,8.922153 134.394730,8.948607 149.023148,9.105065 
	C150.331375,9.119059 151.624802,10.519594 152.989868,11.676857 
z"/>
<path fill="#578083" opacity="1.000000" stroke="none" 
	d="
M156.953400,6.513825 
	C159.589066,6.450999 162.252563,6.761247 165.425537,7.517573 
	C170.826202,12.125843 172.514236,11.939956 175.612930,6.933240 
	C180.813812,8.062288 181.311188,9.681164 178.168030,13.357244 
	C176.963364,14.766149 176.105499,16.471575 175.089600,18.041882 
	C174.886993,18.083637 174.684402,18.125393 173.899078,17.998505 
	C173.158142,17.266012 172.999985,16.702166 172.889618,15.806426 
	C172.353973,14.947041 171.770508,14.419548 171.187042,13.892057 
	C167.120621,12.155669 163.035751,10.460343 159.003815,8.647276 
	C158.223541,8.296412 157.650101,7.485563 156.953400,6.513825 
z"/>
<path fill="#001944" opacity="1.000000" stroke="none" 
	d="
M172.841812,16.138319 
	C172.999985,16.702166 173.158142,17.266012 173.604172,17.902050 
	C173.866806,21.421412 173.841599,24.868582 173.795029,28.955362 
	C173.863541,30.062243 173.953430,30.529512 173.874512,31.348848 
	C173.725571,32.478260 173.745407,33.255604 173.765244,34.032948 
	C173.410812,34.049469 173.159286,34.218891 172.891602,34.748619 
	C171.661575,34.220882 169.664352,33.571430 169.583649,32.736687 
	C169.063080,27.352419 167.489105,21.796036 171.250244,16.354378 
	C172.031586,16.046207 172.436691,16.092264 172.841812,16.138319 
z"/>
<path fill="#35D36D" opacity="1.000000" stroke="none" 
	d="
M80.207840,63.598465 
	C77.914078,63.991024 75.630768,63.991024 72.647476,63.991024 
	C74.065605,59.525928 75.191597,56.115345 80.354492,56.112183 
	C80.547943,58.508423 80.383118,60.857162 80.207840,63.598465 
z"/>
<path fill="#3A4D6A" opacity="1.000000" stroke="none" 
	d="
M80.615158,220.132996 
	C81.234787,222.855164 81.924606,225.880554 81.843636,228.885147 
	C81.755508,232.154999 82.902634,233.478882 86.524796,233.143082 
	C87.323349,234.195053 87.692001,235.203552 87.709869,236.573273 
	C85.907021,236.288040 84.454964,235.641571 83.002907,234.995117 
	C81.976913,233.593964 80.950920,232.192810 79.979225,230.100952 
	C79.969521,228.666199 79.905518,227.922119 79.911118,226.740570 
	C79.911682,224.838257 79.842659,223.373398 79.773628,221.908539 
	C79.964340,221.414703 80.155052,220.920883 80.615158,220.132996 
z"/>
<path fill="#38576C" opacity="1.000000" stroke="none" 
	d="
M80.125587,106.147797 
	C80.123413,106.562210 80.121239,106.976616 79.804718,107.827644 
	C79.628555,109.890900 79.766731,111.517540 79.558975,113.137314 
	C78.385895,113.990509 77.558739,114.850571 76.422256,115.814575 
	C75.462799,115.989838 74.812668,116.061157 74.139069,115.759705 
	C74.412094,112.620926 74.708588,109.854942 75.380455,107.061447 
	C77.212418,106.738556 78.669006,106.443176 80.125587,106.147797 
z"/>
<path fill="#788291" opacity="1.000000" stroke="none" 
	d="
M78.707962,50.802528 
	C77.036057,51.865124 75.364143,52.927719 73.355881,54.004883 
	C75.097038,51.666344 77.174538,49.313232 79.596992,46.958374 
	C79.752525,47.754410 79.563103,48.552197 79.133415,49.852676 
	C78.893158,50.355377 78.707962,50.802528 78.707962,50.802528 
z"/>
<path fill="#00103D" opacity="1.000000" stroke="none" 
	d="
M91.861984,142.070465 
	C92.069695,145.227829 91.961678,148.695389 91.464569,152.333862 
	C91.232407,149.130066 91.389336,145.755371 91.861984,142.070465 
z"/>
<path fill="#09254B" opacity="1.000000" stroke="none" 
	d="
M148.004333,239.390213 
	C149.070374,238.985809 150.134033,238.984818 151.598206,239.377014 
	C152.000275,240.811325 152.001831,241.852432 152.003387,242.893555 
	C151.269165,243.218796 150.534943,243.544022 149.529816,244.005280 
	C148.839935,242.692078 148.420944,241.242844 148.004333,239.390213 
z"/>
<path fill="#60728B" opacity="1.000000" stroke="none" 
	d="
M90.257019,8.956077 
	C90.483566,8.060496 91.049644,7.208555 91.807396,6.092819 
	C93.399445,5.847906 94.799812,5.866787 96.613876,5.964378 
	C94.883896,7.028630 92.740219,8.014173 90.257019,8.956077 
z"/>
<path fill="#7A8797" opacity="1.000000" stroke="none" 
	d="
M76.731583,115.710632 
	C77.558739,114.850571 78.385895,113.990509 79.674347,113.352478 
	C80.135635,113.574509 80.531998,113.861816 80.531998,113.861816 
	C80.652031,115.446930 80.772072,117.032043 80.658722,118.870621 
	C80.246140,119.008377 80.066940,118.892685 79.819214,118.205292 
	C78.881660,117.127823 78.012650,116.622040 77.038284,116.017220 
	C76.932938,115.918182 76.731583,115.710632 76.731583,115.710632 
z"/>
<path fill="#1C3B59" opacity="1.000000" stroke="none" 
	d="
M80.691315,113.569443 
	C80.531998,113.861816 80.135635,113.574509 80.020271,113.359344 
	C79.766731,111.517540 79.628555,109.890900 79.792206,108.138458 
	C80.346237,109.767456 80.598434,111.522255 80.691315,113.569443 
z"/>
<path fill="#C0C5C3" opacity="1.000000" stroke="none" 
	d="
M83.028732,235.338684 
	C84.454964,235.641571 85.907021,236.288040 87.708618,236.902939 
	C88.058159,236.871384 88.210541,237.327225 88.140411,237.557068 
	C86.398376,237.085358 84.726463,236.383789 83.028732,235.338684 
z"/>
<path fill="#797C8E" opacity="1.000000" stroke="none" 
	d="
M80.042282,131.553497 
	C79.046715,132.206665 78.258980,132.533463 77.182861,132.509155 
	C77.540710,131.062637 78.186935,129.967239 78.833153,128.871826 
	C79.162392,128.539337 79.491623,128.206863 80.039795,127.781494 
	C80.255852,128.868103 80.252983,130.047607 80.042282,131.553497 
z"/>
<path fill="#74858B" opacity="1.000000" stroke="none" 
	d="
M80.126389,105.841507 
	C78.669006,106.443176 77.212418,106.738556 75.168991,106.938751 
	C74.291634,106.665985 74.097549,106.414124 74.156738,105.825775 
	C74.880211,105.364975 75.446838,105.166382 76.013466,104.967789 
	C77.054893,104.956490 78.096329,104.945198 79.527084,104.946983 
	C79.986671,105.151787 80.056938,105.343506 80.126389,105.841507 
z"/>
<path fill="#343473" opacity="1.000000" stroke="none" 
	d="
M78.846588,182.311646 
	C79.349968,180.848877 79.898239,179.628708 80.705421,178.208649 
	C80.989021,179.440506 81.013710,180.872269 80.685776,182.654388 
	C79.883942,183.016037 79.434715,183.027344 78.985497,183.038635 
	C78.985497,183.038635 78.891487,182.554230 78.846588,182.311646 
z"/>
<path fill="#3A4D6A" opacity="1.000000" stroke="none" 
	d="
M79.108398,183.370956 
	C79.434715,183.027344 79.883942,183.016037 80.670227,183.002808 
	C81.313942,183.774155 81.620575,184.547455 81.941040,185.650757 
	C81.650497,186.014359 81.349190,186.065826 80.834068,186.182068 
	C80.155235,185.387085 79.693268,184.545181 79.108398,183.370956 
z"/>
<path fill="#1C3B59" opacity="1.000000" stroke="none" 
	d="
M78.830826,51.129272 
	C78.707962,50.802528 78.893158,50.355377 79.036026,50.158661 
	C79.776154,50.765537 80.373405,51.569130 80.938187,52.726807 
	C80.255043,52.539268 79.604370,51.997643 78.830826,51.129272 
z"/>
<path fill="#304368" opacity="1.000000" stroke="none" 
	d="
M172.889618,15.806426 
	C172.436691,16.092264 172.031586,16.046207 171.321350,15.970757 
	C171.029144,15.484286 171.042068,15.027212 171.121033,14.231096 
	C171.770508,14.419548 172.353973,14.947041 172.889618,15.806426 
z"/>
<path fill="#60728B" opacity="1.000000" stroke="none" 
	d="
M97.898224,3.312920 
	C98.445351,2.962153 98.954498,2.941334 99.799759,3.102504 
	C99.600060,3.855080 99.064232,4.425667 98.216034,4.964612 
	C97.889183,4.502935 97.874718,4.072902 97.898224,3.312920 
z"/>
<path fill="#1C3B59" opacity="1.000000" stroke="none" 
	d="
M80.058624,68.162674 
	C80.069382,67.543541 80.262787,66.957787 80.702576,66.186676 
	C81.025047,66.634361 81.101143,67.267387 80.894730,68.039734 
	C80.612206,68.179054 80.241264,68.196037 80.058624,68.162674 
z"/>
<path fill="#C2C6C5" opacity="1.000000" stroke="none" 
	d="
M80.362289,124.652664 
	C80.048302,124.357910 79.953194,123.843651 80.193886,123.144012 
	C80.529686,122.958641 80.874489,123.227852 80.874489,123.227852 
	C80.776718,123.629616 80.678940,124.031380 80.362289,124.652664 
z"/>
<path fill="#1C3B59" opacity="1.000000" stroke="none" 
	d="
M80.946701,122.970383 
	C80.874489,123.227852 80.529686,122.958641 80.318626,122.901711 
	C80.204277,122.450844 80.300987,122.056908 80.578125,121.417892 
	C80.845337,121.686188 80.932121,122.199554 80.946701,122.970383 
z"/>
<path fill="#CFDAD8" opacity="1.000000" stroke="none" 
	d="
M201.789597,8.777198 
	C194.321121,15.998717 186.852631,23.220240 179.079346,30.317154 
	C179.756058,28.380371 180.406174,26.253389 181.776657,24.810730 
	C187.588287,18.692968 193.619797,12.784338 199.558777,6.787229 
	C202.850739,3.463060 206.525650,5.093049 210.562714,6.284112 
	C211.020905,7.025962 211.061630,7.407913 211.102356,7.789862 
	C210.511703,8.029260 209.921051,8.268661 209.248901,8.703804 
	C209.167389,8.899546 208.878403,9.237104 208.706635,9.369247 
	C208.534851,9.501391 208.383987,9.072835 208.284546,8.583757 
	C207.451111,7.851520 206.717102,7.608360 205.983109,7.365200 
	C205.538025,7.386989 205.092926,7.408778 204.099487,7.290199 
	C202.963943,7.692287 202.376770,8.234744 201.789597,8.777198 
z"/>
<path fill="#9B9FA4" opacity="1.000000" stroke="none" 
	d="
M75.915146,104.576035 
	C75.446838,105.166382 74.880211,105.364975 73.687973,105.816040 
	C58.367546,106.186417 43.672733,106.304306 28.584572,106.315926 
	C27.115240,106.053787 26.039259,105.897919 24.963276,105.742058 
	C26.005419,104.830322 27.038736,103.136406 28.091036,103.124527 
	C43.161308,102.954453 58.234230,102.992584 73.306122,103.063461 
	C74.144760,103.067398 74.980011,103.794029 75.915146,104.576035 
z"/>
<path fill="#365468" opacity="1.000000" stroke="none" 
	d="
M24.581043,105.833420 
	C26.039259,105.897919 27.115240,106.053787 28.589756,106.658226 
	C28.981125,108.047562 28.973961,108.988335 28.966797,109.929100 
	C23.347698,110.395836 19.516397,113.861954 15.839605,117.657089 
	C13.785147,119.777679 11.675091,122.131676 8.152888,119.340805 
	C9.847372,116.421349 15.283379,117.969543 15.331390,112.615570 
	C17.271702,110.454063 19.090158,108.644592 20.991440,106.497513 
	C22.115780,106.081528 23.157293,106.003151 24.581043,105.833420 
z"/>
<path fill="#979BA1" opacity="1.000000" stroke="none" 
	d="
M73.046715,71.356926 
	C74.308937,71.068497 75.620987,71.114113 77.034279,71.474503 
	C75.789200,71.756508 74.442863,71.723740 73.046715,71.356926 
z"/>
<path fill="#C0C5C3" opacity="1.000000" stroke="none" 
	d="
M79.841522,227.178040 
	C79.905518,227.922119 79.969521,228.666199 79.889221,229.756165 
	C68.330765,230.669235 56.916592,231.236404 45.168663,231.421997 
	C44.951012,230.434357 45.067116,229.828308 45.269241,228.989044 
	C45.526283,228.459503 45.769413,228.244858 46.505249,228.139999 
	C50.167858,227.759094 53.401115,227.110947 56.653751,226.991791 
	C63.068699,226.756775 69.494385,226.814972 76.295029,226.835693 
	C77.448273,226.940292 78.222130,226.961090 79.203033,227.049622 
	C79.410080,227.117355 79.841522,227.178040 79.841522,227.178040 
z"/>
<path fill="#6B7C8C" opacity="1.000000" stroke="none" 
	d="
M45.183220,229.222260 
	C45.067116,229.828308 44.951012,230.434357 44.765480,231.340195 
	C44.696056,231.639984 44.356533,231.828842 43.869370,231.997040 
	C42.253990,233.442734 41.125778,234.720215 39.997559,235.997696 
	C37.144718,238.838608 34.291885,241.679520 31.237364,244.786072 
	C30.578156,245.041306 30.120632,245.030899 29.319338,244.996078 
	C31.575859,241.864044 34.176151,238.756424 36.910057,235.342865 
	C37.043674,235.036911 37.013699,235.016129 37.326530,234.896057 
	C40.153988,232.924744 42.668606,231.073502 45.183220,229.222260 
z"/>
<path fill="#C0C5C3" opacity="1.000000" stroke="none" 
	d="
M40.370300,236.016022 
	C41.125778,234.720215 42.253990,233.442734 43.700119,232.092377 
	C42.926369,233.357773 41.834705,234.696060 40.370300,236.016022 
z"/>
<path fill="#C2C6C5" opacity="1.000000" stroke="none" 
	d="
M78.482132,128.893127 
	C78.186935,129.967239 77.540710,131.062637 76.858200,132.477600 
	C68.425148,141.101990 60.028393,149.406830 51.042686,157.856781 
	C50.031895,158.064011 49.610062,158.126129 49.188225,158.188263 
	C49.188225,158.188263 48.967758,157.974747 48.853539,157.868759 
	C52.511581,153.662842 56.207367,149.489075 60.076168,145.482346 
	C64.543472,140.855804 69.112869,136.324051 73.750259,131.868042 
	C75.001396,130.665848 76.659706,129.887390 78.482132,128.893127 
z"/>
<path fill="#C2C6C5" opacity="1.000000" stroke="none" 
	d="
M56.355721,139.994324 
	C56.005692,139.548248 56.001953,139.088959 56.184673,138.051270 
	C57.671268,136.058670 58.971401,134.644470 60.566284,133.162933 
	C61.313900,132.481308 61.766766,131.867035 62.411743,131.101166 
	C62.847816,130.730743 63.065708,130.488480 63.573090,130.158508 
	C64.660210,129.138962 65.431778,128.183670 66.390747,127.075035 
	C66.816696,126.700432 67.019180,126.450035 67.490860,126.113815 
	C68.249664,125.426781 68.703239,124.796417 69.349274,124.023163 
	C69.784950,123.669052 69.992821,123.427422 70.489731,123.102821 
	C71.579239,122.076981 72.344368,121.103706 73.113365,120.121246 
	C73.117233,120.112053 73.138763,120.107109 73.471405,120.100693 
	C74.457153,119.991608 75.110260,119.888931 75.763374,119.786255 
	C75.674713,120.424744 75.825783,121.305771 75.461716,121.665627 
	C69.246315,127.809052 62.967140,133.887970 56.355721,139.994324 
z"/>
<path fill="#7A8797" opacity="1.000000" stroke="none" 
	d="
M75.870514,119.530991 
	C75.110260,119.888931 74.457153,119.991608 73.447418,119.749115 
	C73.419151,118.296577 73.747520,117.189209 74.096420,116.096436 
	C74.116951,116.111023 74.162537,116.132484 74.162537,116.132484 
	C74.812668,116.061157 75.462799,115.989838 76.422256,115.814575 
	C76.731583,115.710632 76.932938,115.918182 76.986015,116.323135 
	C77.013374,117.141014 76.987656,117.553940 76.961929,117.966866 
	C76.633835,118.403152 76.305748,118.839439 75.870514,119.530991 
z"/>
<path fill="#C2C6C5" opacity="1.000000" stroke="none" 
	d="
M77.288513,117.996437 
	C76.987656,117.553940 77.013374,117.141014 77.091362,116.422173 
	C78.012650,116.622040 78.881660,117.127823 79.651939,117.932541 
	C78.907166,118.162979 78.261124,118.094498 77.288513,117.996437 
z"/>
<path fill="#021F48" opacity="1.000000" stroke="none" 
	d="
M163.513123,237.054596 
	C161.449829,236.583572 159.770294,236.110382 158.009247,235.245728 
	C159.154953,233.094101 160.382172,231.333939 162.103073,229.242798 
	C162.671448,227.911972 162.746155,226.912140 162.820847,225.912292 
	C162.825989,224.249252 162.831131,222.586212 163.142303,220.252960 
	C162.991150,217.388962 162.533966,215.195175 162.076797,213.001373 
	C162.049377,208.311188 162.021957,203.621017 162.359772,198.400818 
	C164.639343,196.201904 164.743851,194.852875 162.040894,194.000031 
	C162.015213,188.311844 161.989517,182.623672 162.310913,176.420181 
	C164.438461,175.603455 166.218933,175.302032 167.999390,175.463730 
	C167.999390,179.951233 167.999390,183.975616 167.708740,188.288574 
	C167.278839,190.675812 167.202728,192.781006 166.986557,194.871689 
	C166.597656,198.632996 168.092499,200.469772 171.997543,200.407501 
	C172.068649,201.625061 172.135773,202.436676 172.202911,203.248291 
	C172.151733,209.398132 171.347870,215.663162 172.266220,221.664642 
	C173.141846,227.386795 169.226959,230.814026 167.697891,235.323074 
	C167.391907,236.225403 165.212463,236.492447 163.513123,237.054596 
z"/>
<path fill="#243957" opacity="1.000000" stroke="none" 
	d="
M172.527130,203.140900 
	C172.135773,202.436676 172.068649,201.625061 172.030701,200.089569 
	C172.380569,198.581772 172.701248,197.797867 173.286102,196.894165 
	C174.035034,196.192184 174.519806,195.609985 175.343018,194.967682 
	C188.448364,182.258926 201.215271,169.610321 214.301193,156.821503 
	C215.837875,155.197891 217.055542,153.714493 218.273209,152.231094 
	C217.991455,151.813553 217.709702,151.396011 217.427948,150.978470 
	C215.645630,150.978470 213.863312,150.978271 212.080994,150.978500 
	C200.770065,150.979919 189.459106,150.995667 178.148239,150.970993 
	C175.870575,150.966034 173.193436,151.449844 173.107498,147.843521 
	C175.006302,148.212677 176.903305,148.890915 178.804199,148.902023 
	C193.893188,148.990250 208.982925,148.951675 224.647507,149.235321 
	C225.506210,150.032227 225.789856,150.545853 226.073502,151.059479 
	C216.301437,159.971924 206.300919,168.649567 196.826126,177.867584 
	C188.527832,185.940964 180.820023,194.621307 172.527130,203.140900 
z"/>
<path fill="#07224A" opacity="1.000000" stroke="none" 
	d="
M152.356781,242.950470 
	C152.001831,241.852432 152.000275,240.811325 151.997223,239.378235 
	C153.246216,239.137451 154.496704,239.288635 155.894165,239.737671 
	C154.930817,241.026154 153.820496,242.016769 152.356781,242.950470 
z"/>
<path fill="#41546F" opacity="1.000000" stroke="none" 
	d="
M226.500427,151.061249 
	C225.789856,150.545853 225.506210,150.032227 225.116760,149.245636 
	C227.736816,148.974411 230.462692,148.976135 233.651306,148.972565 
	C231.718460,149.665833 229.322906,150.364410 226.500427,151.061249 
z"/>
<path fill="#283565" opacity="1.000000" stroke="none" 
	d="
M213.886566,58.999348 
	C211.450211,63.274235 208.640457,67.552513 205.493927,72.309174 
	C203.713654,73.857224 202.120575,74.775063 200.853455,76.023705 
	C196.182175,80.626877 191.618790,85.339561 186.655304,89.977615 
	C185.555099,90.646919 184.814453,91.349678 183.802475,92.170761 
	C182.996719,92.852669 182.462280,93.416252 181.720337,94.098862 
	C181.248215,94.420982 181.077698,94.684875 180.842438,95.287292 
	C179.468140,96.715904 178.252670,97.866814 176.693787,99.002274 
	C175.892273,98.978233 175.434143,98.969643 174.983337,98.571640 
	C174.983261,97.147980 174.975845,96.113724 174.968430,95.079483 
	C186.158203,84.355492 197.331818,73.614517 208.556824,62.927544 
	C210.076782,61.480453 211.854706,60.304329 213.886566,58.999348 
z"/>
<path fill="#07224A" opacity="1.000000" stroke="none" 
	d="
M174.590988,94.943764 
	C174.975845,96.113724 174.983261,97.147980 174.731735,98.752991 
	C174.365662,99.911560 174.258514,100.499359 174.151382,101.087166 
	C174.087616,101.242332 174.023834,101.397499 173.658844,101.770782 
	C173.357605,101.988884 172.983078,101.963135 172.983078,101.963135 
	C172.815231,101.418800 172.647369,100.874466 172.239563,99.736801 
	C171.998505,97.427925 171.997421,95.712364 171.996338,93.996811 
	C172.097534,86.901779 172.198715,79.806755 172.551651,72.403091 
	C172.869781,78.001915 172.852951,83.912239 173.055496,89.815033 
	C173.113007,91.490646 173.809891,93.144318 174.590988,94.943764 
z"/>
<path fill="#283565" opacity="1.000000" stroke="none" 
	d="
M225.970612,48.911057 
	C224.777206,50.659660 223.246368,52.294247 221.421906,54.112076 
	C220.554947,53.692505 219.981583,53.089695 219.408234,52.486893 
	C221.483200,51.256943 223.558182,50.026989 225.970612,48.911057 
z"/>
<path fill="#283565" opacity="1.000000" stroke="none" 
	d="
M218.147736,56.773327 
	C218.042755,57.390320 217.828583,57.684055 217.404175,58.153862 
	C216.705353,58.250107 216.216751,58.170277 215.358978,58.150818 
	C215.341431,56.473602 215.364807,54.167782 218.147736,56.773327 
z"/>
<path fill="#778795" opacity="1.000000" stroke="none" 
	d="
M202.164444,8.869942 
	C202.376770,8.234744 202.963943,7.692287 203.766052,7.314586 
	C204.006424,7.724020 204.031876,7.968700 204.071136,8.581616 
	C203.569733,8.954129 203.054504,8.958405 202.164444,8.869942 
z"/>
<path fill="#778795" opacity="1.000000" stroke="none" 
	d="
M206.083069,7.737626 
	C206.717102,7.608360 207.451111,7.851520 208.203583,8.371507 
	C207.542404,8.468906 206.862717,8.289479 206.083069,7.737626 
z"/>
<path fill="#CFDAD8" opacity="1.000000" stroke="none" 
	d="
M175.433960,18.022396 
	C176.105499,16.471575 176.963364,14.766149 178.168030,13.357244 
	C181.311188,9.681164 180.813812,8.062288 175.502518,6.687190 
	C174.835220,6.136397 174.663651,5.824557 174.492065,5.512718 
	C174.492065,5.512720 174.763046,5.239186 174.898804,5.102089 
	C178.117493,5.547104 181.200424,6.129215 184.626709,7.199427 
	C184.982407,8.126949 184.994781,8.566371 185.007141,9.005791 
	C181.930862,12.004829 178.854584,15.003870 175.433960,18.022396 
z"/>
<path fill="#F0DAFD" opacity="1.000000" stroke="none" 
	d="
M211.550842,7.850294 
	C211.061630,7.407913 211.020905,7.025962 210.963593,6.355425 
	C216.113525,5.854524 221.280060,5.642210 226.723419,5.706813 
	C221.999939,6.626062 216.999634,7.268393 211.550842,7.850294 
z"/>
<path fill="#F0EEE2" opacity="1.000000" stroke="none" 
	d="
M174.043304,30.996782 
	C173.953430,30.529512 173.863541,30.062243 173.972961,29.288500 
	C175.322861,29.380585 176.473434,29.779142 177.741882,30.468105 
	C177.859741,30.758514 178.029617,30.829792 177.624863,30.892284 
	C176.161179,30.968779 175.102234,30.982780 174.043304,30.996782 
z"/>
<path fill="#F1F0E6" opacity="1.000000" stroke="none" 
	d="
M185.305176,8.966996 
	C184.994781,8.566371 184.982407,8.126949 184.967606,7.358401 
	C185.488632,7.248954 186.012100,7.468634 186.535553,7.688313 
	C186.224777,8.101609 185.914001,8.514905 185.305176,8.966996 
z"/>
<path fill="#356F66" opacity="1.000000" stroke="none" 
	d="
M29.437721,109.965233 
	C28.973961,108.988335 28.981125,108.047562 28.983105,106.764496 
	C43.672733,106.304306 58.367546,106.186417 73.531128,106.078255 
	C74.097549,106.414124 74.291634,106.665985 74.793610,106.966263 
	C74.708588,109.854942 74.412094,112.620926 74.139069,115.759705 
	C74.162537,116.132484 74.116951,116.111023 73.744766,116.069885 
	C72.903099,116.011337 72.433617,115.993935 71.964134,115.976532 
	C72.315010,114.264633 72.665894,112.552734 73.188843,110.001366 
	C58.314243,110.001366 44.111446,110.001366 29.437721,109.965233 
z"/>
<path fill="#38576C" opacity="1.000000" stroke="none" 
	d="
M71.663651,116.135193 
	C72.433617,115.993935 72.903099,116.011337 73.724236,116.055290 
	C73.747520,117.189209 73.419151,118.296577 73.114777,119.755524 
	C73.138763,120.107109 73.117233,120.112053 72.758308,120.102921 
	C71.654709,121.114319 70.910027,122.134857 70.165352,123.155388 
	C69.992821,123.427422 69.784950,123.669052 69.002281,123.999146 
	C68.037094,124.802162 67.611359,125.486328 67.185623,126.170486 
	C67.019180,126.450035 66.816696,126.700432 66.024124,127.024666 
	C64.732559,128.159348 63.995041,129.191055 63.257523,130.222763 
	C63.065708,130.488480 62.847816,130.730743 62.054203,131.051010 
	C61.093548,131.845062 60.682541,132.537659 60.271538,133.230270 
	C58.971401,134.644470 57.671268,136.058670 56.153061,137.707764 
	C53.077015,140.367706 50.194244,142.764297 47.367271,145.224991 
	C43.757580,148.367004 40.192936,151.560776 36.294983,154.863342 
	C35.971882,154.516922 35.962666,154.039398 35.908554,153.203964 
	C45.190750,143.238647 54.517357,133.630753 63.845268,124.024117 
	C66.349190,121.445381 68.857094,118.870506 71.663651,116.135193 
z"/>
<path fill="#07224A" opacity="1.000000" stroke="none" 
	d="
M175.004578,195.027802 
	C174.519806,195.609985 174.035034,196.192184 173.038406,196.724731 
	C172.351044,196.116714 172.175522,195.558365 172.000000,194.531342 
	C172.000000,180.041794 172.000000,166.020889 172.000000,151.624619 
	C171.998978,150.498474 171.997955,149.747711 171.996521,148.662689 
	C171.989014,147.882645 171.981934,147.436874 171.979523,146.557159 
	C172.215973,143.455597 172.447723,140.787994 172.679474,138.120377 
	C172.807220,141.069916 172.934967,144.019455 173.085098,147.406250 
	C173.193436,151.449844 175.870575,150.966034 178.148239,150.970993 
	C189.459106,150.995667 200.770065,150.979919 212.080994,150.978500 
	C213.863312,150.978271 215.645630,150.978470 217.427948,150.978470 
	C217.709702,151.396011 217.991455,151.813553 218.273209,152.231094 
	C217.055542,153.714493 215.837875,155.197891 214.290924,156.420410 
	C212.434982,155.107971 210.931870,153.187881 209.377884,153.145782 
	C199.250595,152.871475 189.110840,153.101898 178.978333,152.952148 
	C175.388824,152.899094 173.874420,154.093079 173.926712,157.828995 
	C174.080200,168.792358 173.954895,179.759399 174.042206,190.724182 
	C174.053635,192.161179 174.668961,193.593369 175.004578,195.027802 
z"/>
<path fill="#001A46" opacity="1.000000" stroke="none" 
	d="
M172.764557,137.646057 
	C172.447723,140.787994 172.215973,143.455597 171.650635,146.560501 
	C170.877838,146.998734 170.438614,146.999680 169.999115,146.539978 
	C169.716736,142.338303 169.163849,138.593964 169.209320,134.856918 
	C169.302048,127.235664 169.717117,119.618340 170.342682,111.999672 
	C171.368835,112.002663 172.051697,112.005371 172.734558,112.008080 
	C172.772934,120.395958 172.811295,128.783844 172.764557,137.646057 
z"/>
<path fill="#021F48" opacity="1.000000" stroke="none" 
	d="
M172.836639,111.781013 
	C172.051697,112.005371 171.368835,112.002663 170.348145,111.646378 
	C170.673355,110.528862 171.336380,109.764915 172.244568,109.000977 
	C172.489746,109.000984 172.980118,108.997971 172.980118,108.997971 
	C172.984802,109.458221 172.989487,109.918472 173.022125,110.723686 
	C173.050064,111.068649 172.938705,111.553947 172.836639,111.781013 
z"/>
<path fill="#ABACAD" opacity="1.000000" stroke="none" 
	d="
M187.014832,90.011063 
	C191.618790,85.339561 196.182175,80.626877 200.853455,76.023705 
	C202.120575,74.775063 203.713654,73.857224 205.502075,72.658852 
	C206.285507,72.640953 206.723984,72.751762 207.938599,72.858231 
	C216.340454,72.571312 223.965485,72.199097 231.592941,72.140396 
	C232.383194,72.134308 233.187790,73.992645 233.985733,74.985893 
	C225.521942,83.591888 217.088806,92.228561 208.553009,100.762550 
	C207.557526,101.757835 205.994629,102.185616 204.041687,102.631287 
	C195.716324,102.386093 188.044052,102.386093 179.366226,102.386093 
	C182.594101,97.989807 184.794922,94.992340 187.022644,91.664253 
	C187.037964,90.892776 187.026398,90.451920 187.014832,90.011063 
z"/>
<path fill="#8E949C" opacity="1.000000" stroke="none" 
	d="
M186.995743,91.994873 
	C184.794922,94.992340 182.594101,97.989807 179.366226,102.386093 
	C188.044052,102.386093 195.716324,102.386093 203.691620,102.667938 
	C199.483261,103.303391 194.976501,103.747284 190.458878,103.979622 
	C187.329193,104.140579 184.133148,104.340950 181.068817,103.865707 
	C179.602783,103.638344 178.373703,101.883263 177.048218,100.167145 
	C177.059128,99.514168 177.037186,99.017723 177.037186,99.017731 
	C178.252670,97.866814 179.468140,96.715904 181.088303,95.212944 
	C181.637955,94.567207 181.782898,94.273521 181.927856,93.979828 
	C182.462280,93.416252 182.996719,92.852669 184.167023,92.170486 
	C185.533829,92.032875 186.264786,92.013878 186.995743,91.994873 
z"/>
<path fill="#8E949C" opacity="1.000000" stroke="none" 
	d="
M234.307434,74.847549 
	C233.187790,73.992645 232.383194,72.134308 231.592941,72.140396 
	C223.965485,72.199097 216.340454,72.571312 208.282761,72.845566 
	C209.625931,71.601051 211.353668,69.386200 213.184372,69.297546 
	C221.255264,68.906715 229.355850,69.128708 239.179489,69.128708 
	C237.056595,71.732208 235.842865,73.220703 234.307434,74.847549 
z"/>
<path fill="#04214A" opacity="1.000000" stroke="none" 
	d="
M172.728394,102.180794 
	C172.983078,101.963135 173.357605,101.988884 173.542725,101.994041 
	C173.839966,103.032600 173.952072,104.065994 174.093719,105.485657 
	C174.073242,106.048988 174.023209,106.226059 173.708923,106.519348 
	C172.962936,106.089905 172.481171,105.544250 171.999390,104.998596 
	C172.157501,104.131882 172.315613,103.265167 172.728394,102.180794 
z"/>
<path fill="#40546F" opacity="1.000000" stroke="none" 
	d="
M176.693787,99.002274 
	C177.037186,99.017723 177.059128,99.514168 177.035278,99.761551 
	C176.259766,100.341118 175.508102,100.673302 174.453903,101.046326 
	C174.258514,100.499359 174.365662,99.911560 174.724396,99.142410 
	C175.434143,98.969643 175.892273,98.978233 176.693787,99.002274 
z"/>
<path fill="#07224A" opacity="1.000000" stroke="none" 
	d="
M171.998627,105.248222 
	C172.481171,105.544250 172.962936,106.089905 173.668457,106.792374 
	C173.754639,107.518898 173.617050,108.088600 173.229797,108.828140 
	C172.980118,108.997971 172.489746,109.000984 172.244751,108.625504 
	C171.998825,107.499046 171.997894,106.748070 171.996948,105.997093 
	C171.996948,105.997093 171.997864,105.497849 171.998627,105.248222 
z"/>
<path fill="#788291" opacity="1.000000" stroke="none" 
	d="
M68.697220,58.022842 
	C68.277641,59.017727 67.511810,60.012344 66.410149,61.033951 
	C66.833206,60.048153 67.592087,59.035366 68.697220,58.022842 
z"/>
<path fill="#788291" opacity="1.000000" stroke="none" 
	d="
M72.675613,54.031010 
	C72.241890,55.006805 71.464287,55.994156 70.346107,57.006866 
	C70.780930,56.035671 71.556328,55.039116 72.675613,54.031010 
z"/>
<path fill="#6B7C8C" opacity="1.000000" stroke="none" 
	d="
M75.915634,226.751907 
	C69.494385,226.814972 63.068699,226.756775 56.653751,226.991791 
	C53.401115,227.110947 50.167858,227.759094 46.581589,227.799622 
	C47.060181,226.567398 47.883026,225.703598 49.273899,224.243515 
	C46.602398,224.050217 44.824524,223.921600 43.046650,223.792969 
	C42.756420,223.380554 42.466194,222.968155 42.058090,222.334671 
	C53.687130,222.301392 65.433922,222.499039 77.181328,222.649658 
	C77.808441,222.657700 78.440636,222.269363 79.422043,221.987045 
	C79.842659,223.373398 79.911682,224.838257 79.911118,226.740570 
	C79.841522,227.178040 79.410080,227.117355 79.162094,226.720734 
	C77.914612,226.466721 76.915123,226.609314 75.915634,226.751907 
z"/>
<path fill="#2B4065" opacity="1.000000" stroke="none" 
	d="
M42.833210,223.952759 
	C44.824524,223.921600 46.602398,224.050217 49.273899,224.243515 
	C47.883026,225.703598 47.060181,226.567398 46.160995,227.771545 
	C45.769413,228.244858 45.526283,228.459503 45.269241,228.989044 
	C42.668606,231.073502 40.153988,232.924744 37.331215,234.906982 
	C37.327530,233.612518 37.632000,232.187027 37.978722,230.396729 
	C38.020981,230.031891 38.011547,230.008072 38.355171,229.963684 
	C39.787582,228.258377 40.876369,226.597473 41.965164,224.936554 
	C42.183369,224.661880 42.401566,224.387207 42.833210,223.952759 
z"/>
<path fill="#402B85" opacity="1.000000" stroke="none" 
	d="
M41.563580,224.953644 
	C40.876369,226.597473 39.787582,228.258377 38.363857,229.966736 
	C38.128864,227.746353 37.077518,224.763321 41.563580,224.953644 
z"/>
<path fill="#797C8E" opacity="1.000000" stroke="none" 
	d="
M37.727219,171.078979 
	C37.283268,172.060089 36.491772,173.023239 35.366207,174.010284 
	C35.814648,173.043121 36.597160,172.052078 37.727219,171.078979 
z"/>
<path fill="#797C8E" opacity="1.000000" stroke="none" 
	d="
M40.738621,168.077026 
	C40.310841,169.073257 39.533619,170.048218 38.426613,171.049011 
	C38.860947,170.068466 39.625061,169.062119 40.738621,168.077026 
z"/>
<path fill="#797C8E" opacity="1.000000" stroke="none" 
	d="
M47.759880,161.102936 
	C47.336941,162.098618 46.563080,163.069183 45.463501,164.078339 
	C45.894840,163.103897 46.651897,162.090851 47.759880,161.102936 
z"/>
<path fill="#797C8E" opacity="1.000000" stroke="none" 
	d="
M49.129135,158.503418 
	C49.610062,158.126129 50.031895,158.064011 50.771416,158.052719 
	C50.635769,158.739120 50.182438,159.374680 49.418678,160.051697 
	C49.095512,159.668304 49.082779,159.243439 49.129135,158.503418 
z"/>
<path fill="#797C8E" opacity="1.000000" stroke="none" 
	d="
M43.714081,165.045624 
	C43.604794,165.698776 43.158878,166.346939 42.398468,167.035965 
	C42.515137,166.398102 42.946297,165.719376 43.714081,165.045624 
z"/>
<path fill="#4BE17E" opacity="1.000000" stroke="none" 
	d="
M174.204422,5.359204 
	C174.663651,5.824557 174.835220,6.136397 175.117203,6.694287 
	C172.514236,11.939956 170.826202,12.125843 165.795822,7.640454 
	C168.410034,6.613401 171.163406,5.909547 174.204422,5.359204 
z"/>
<path fill="#FBFBFC" opacity="1.000000" stroke="none" 
	d="
M155.177551,233.999939 
	C136.985962,234.314621 118.946785,234.285873 100.442436,234.329681 
	C95.433578,231.050644 94.788925,226.578217 94.800148,221.094681 
	C94.933899,155.768372 94.769150,90.441460 94.682755,25.114702 
	C94.674644,18.985147 100.016693,13.716993 106.239296,13.717193 
	C120.071754,13.717635 133.904205,13.721225 147.736664,13.717199 
	C154.488129,13.715235 159.552872,18.696066 159.556702,25.355680 
	C159.594467,91.017334 159.704376,156.679230 159.484863,222.340012 
	C159.472229,226.116776 156.776825,229.884537 155.177551,233.999939 
z"/>
<path fill="#04214A" opacity="1.000000" stroke="none" 
	d="
M171.667633,105.948700 
	C171.997894,106.748070 171.998825,107.499046 171.999573,108.625504 
	C171.336380,109.764915 170.673355,110.528862 170.004852,111.646103 
	C169.717117,119.618340 169.302048,127.235664 169.209320,134.856918 
	C169.163849,138.593964 169.716736,142.338303 170.041809,146.859589 
	C170.722168,148.092209 171.359558,148.544586 171.996948,148.996948 
	C171.997955,149.747711 171.998978,150.498474 171.605713,151.635422 
	C170.141678,153.762680 168.270035,155.450165 168.149445,157.254684 
	C167.755661,163.147018 168.000305,169.082016 167.999390,175.000610 
	C166.218933,175.302032 164.438461,175.603455 162.330780,175.952591 
	C161.978989,174.934647 161.954391,173.868988 161.939819,172.403839 
	C165.858597,172.204346 165.008896,169.303680 164.972977,167.151810 
	C164.688599,150.123657 164.139023,133.096420 164.161789,116.069565 
	C164.166489,112.559509 166.115189,109.007622 167.496475,105.608543 
	C167.644058,105.245369 170.004440,105.781410 171.667633,105.948700 
z"/>
<path fill="#04214A" opacity="1.000000" stroke="none" 
	d="
M162.041443,213.417099 
	C162.533966,215.195175 162.991150,217.388962 163.137146,219.837265 
	C162.552658,218.005447 162.279373,215.919144 162.041443,213.417099 
z"/>
<path fill="#04214A" opacity="1.000000" stroke="none" 
	d="
M162.012115,194.399429 
	C164.743851,194.852875 164.639343,196.201904 162.385300,197.935257 
	C162.024841,196.932755 162.004074,195.865799 162.012115,194.399429 
z"/>
<path fill="#04214A" opacity="1.000000" stroke="none" 
	d="
M162.591187,226.152817 
	C162.746155,226.912140 162.671448,227.911972 162.255676,228.954727 
	C162.063568,228.129532 162.212540,227.261444 162.591187,226.152817 
z"/>
<path fill="#001742" opacity="1.000000" stroke="none" 
	d="
M92.834549,122.743668 
	C92.583412,122.855080 92.347946,122.648026 92.106277,122.131470 
	C92.345398,122.021339 92.595444,122.222412 92.834549,122.743668 
z"/>
<path fill="#07224A" opacity="1.000000" stroke="none" 
	d="
M167.082550,66.207581 
	C167.024689,59.761669 167.024689,53.728771 167.024689,47.695869 
	C167.555435,47.692108 168.086182,47.688347 168.616928,47.684586 
	C168.616928,54.112812 168.616928,60.541035 168.616928,66.969261 
	C168.124756,66.853035 167.632599,66.736809 167.082550,66.207581 
z"/>
<path fill="#04214A" opacity="1.000000" stroke="none" 
	d="
M171.634308,93.960129 
	C171.997421,95.712364 171.998505,97.427925 171.999176,99.572189 
	C170.507401,99.911606 168.027481,100.284973 167.725220,99.639160 
	C167.042542,98.180489 167.142792,96.141396 167.571289,94.508087 
	C167.698563,94.022949 169.978653,94.102592 171.634308,93.960129 
z"/>
<path fill="#AA2DF1" opacity="1.000000" stroke="none" 
	d="
M79.058533,174.017761 
	C78.118156,175.218735 77.185257,177.454041 76.236267,177.460892 
	C66.609627,177.530426 56.980148,177.245926 47.352180,177.028900 
	C46.395977,177.007355 45.444515,176.775406 42.923443,176.420395 
	C53.276180,164.484665 63.815483,154.293686 75.577774,145.341446 
	C75.973915,153.901901 76.020172,162.040649 75.975319,170.178909 
	C75.963081,172.400650 76.138138,174.253220 79.058533,174.017761 
z"/>
<path fill="#B42DFC" opacity="1.000000" stroke="none" 
	d="
M79.071968,173.547470 
	C76.138138,174.253220 75.963081,172.400650 75.975319,170.178909 
	C76.020172,162.040649 75.973915,153.901901 75.918045,145.273132 
	C76.130524,144.319321 76.386932,143.855698 77.042236,143.281296 
	C77.976837,143.446533 78.512527,143.722580 79.048218,143.998611 
	C79.060616,153.691467 79.073013,163.384323 79.071968,173.547470 
z"/>
<path fill="#AA2DF1" opacity="1.000000" stroke="none" 
	d="
M79.061096,143.653809 
	C78.512527,143.722580 77.976837,143.446533 77.163605,143.044052 
	C77.271942,142.129425 77.657814,141.341232 78.572929,139.472015 
	C78.846153,141.564301 78.960068,142.436646 79.061096,143.653809 
z"/>
<path fill="#CFDAD8" opacity="1.000000" stroke="none" 
	d="
M173.874512,31.348848 
	C175.102234,30.982780 176.161179,30.968779 177.616516,30.984009 
	C176.861328,32.013420 175.709732,33.013599 174.161697,34.023361 
	C173.745407,33.255604 173.725571,32.478260 173.874512,31.348848 
z"/>
<path fill="#919096" opacity="1.000000" stroke="none" 
	d="
M76.295029,226.835724 
	C76.915123,226.609314 77.914612,226.466721 78.955048,226.653000 
	C78.222130,226.961090 77.448273,226.940292 76.295029,226.835724 
z"/>
<path fill="#7A8797" opacity="1.000000" stroke="none" 
	d="
M70.489731,123.102821 
	C70.910027,122.134857 71.654709,121.114319 72.754440,120.112106 
	C72.344368,121.103706 71.579239,122.076981 70.489731,123.102821 
z"/>
<path fill="#7A8797" opacity="1.000000" stroke="none" 
	d="
M63.573086,130.158508 
	C63.995041,129.191055 64.732559,128.159348 65.836708,127.178009 
	C65.431778,128.183670 64.660210,129.138962 63.573086,130.158508 
z"/>
<path fill="#7A8797" opacity="1.000000" stroke="none" 
	d="
M60.566284,133.162933 
	C60.682541,132.537659 61.093548,131.845062 61.862091,131.202606 
	C61.766766,131.867035 61.313900,132.481308 60.566284,133.162933 
z"/>
<path fill="#7A8797" opacity="1.000000" stroke="none" 
	d="
M67.490860,126.113815 
	C67.611359,125.486328 68.037094,124.802162 68.809814,124.142029 
	C68.703239,124.796417 68.249664,125.426781 67.490860,126.113815 
z"/>
<path fill="#05224C" opacity="1.000000" stroke="none" 
	d="
M167.999390,175.463730 
	C168.000305,169.082016 167.755661,163.147018 168.149445,157.254684 
	C168.270035,155.450165 170.141678,153.762680 171.605713,152.010803 
	C172.000000,166.020889 172.000000,180.041794 171.604889,194.517899 
	C170.139648,192.648743 169.069519,190.324371 167.999390,188.000000 
	C167.999390,183.975616 167.999390,179.951233 167.999390,175.463730 
z"/>
<path fill="#04214A" opacity="1.000000" stroke="none" 
	d="
M167.708740,188.288574 
	C169.069519,190.324371 170.139648,192.648743 171.604889,194.986557 
	C172.175522,195.558365 172.351044,196.116714 172.774231,196.844513 
	C172.701248,197.797867 172.380569,198.581772 172.026733,199.683624 
	C168.092499,200.469772 166.597656,198.632996 166.986557,194.871689 
	C167.202728,192.781006 167.278839,190.675812 167.708740,188.288574 
z"/>
<path fill="#040A12" opacity="1.000000" stroke="none" 
	d="
M175.343018,194.967667 
	C174.668961,193.593369 174.053635,192.161179 174.042206,190.724182 
	C173.954895,179.759399 174.080200,168.792358 173.926712,157.828995 
	C173.874420,154.093079 175.388824,152.899094 178.978333,152.952148 
	C189.110840,153.101898 199.250595,152.871475 209.377884,153.145782 
	C210.931870,153.187881 212.434982,155.107971 213.971893,156.560608 
	C201.215271,169.610321 188.448364,182.258926 175.343018,194.967667 
z"/>
<path fill="#677386" opacity="1.000000" stroke="none" 
	d="
M187.022644,91.664253 
	C186.264786,92.013878 185.533829,92.032875 184.438324,92.052155 
	C184.814453,91.349678 185.555099,90.646919 186.655289,89.977615 
	C187.026398,90.451920 187.037964,90.892776 187.022644,91.664253 
z"/>
<path fill="#40546F" opacity="1.000000" stroke="none" 
	d="
M181.720337,94.098862 
	C181.782898,94.273521 181.637955,94.567207 181.247131,94.935242 
	C181.077698,94.684875 181.248215,94.420982 181.720337,94.098862 
z"/>
<path fill="#021F48" opacity="1.000000" stroke="none" 
	d="
M171.996521,148.662689 
	C171.359558,148.544586 170.722168,148.092209 170.042084,147.320236 
	C170.438614,146.999680 170.877838,146.998734 171.645966,146.994446 
	C171.981934,147.436874 171.989014,147.882645 171.996521,148.662689 
z"/>
</svg>